
<global>
ampeg_release=3.50
</global>

<group>
group_label=RR1
seq_length=3
seq_position=1

<region>
hivel=32
key=A#5
lovel=0
offset=13325
sample=Marimba_soft_Sustain_PP_A#5_RR1.opus
volume=4
</region>

<region>
hivel=32
key=A#6
lovel=0
offset=14949
sample=Marimba_soft_Sustain_PP_A#6_RR1.opus
volume=4
</region>

<region>
hivel=32
key=A5
lovel=0
offset=13522
sample=Marimba_soft_Sustain_PP_A5_RR1.opus
volume=4
</region>

<region>
hivel=32
key=A6
lovel=0
offset=14246
sample=Marimba_soft_Sustain_PP_A6_RR1.opus
volume=4
</region>

<region>
hivel=32
key=B5
lovel=0
offset=13520
sample=Marimba_soft_Sustain_PP_B5_RR1.opus
volume=4
</region>

<region>
hivel=32
key=B6
lovel=0
offset=15360
sample=Marimba_soft_Sustain_PP_B6_RR1.opus
volume=4
</region>

<region>
hivel=32
key=C#6
lovel=0
offset=13522
sample=Marimba_soft_Sustain_PP_C#6_RR1.opus
volume=4
</region>

<region>
hivel=32
key=C6
lovel=0
offset=13280
sample=Marimba_soft_Sustain_PP_C6_RR1.opus
volume=4
</region>

<region>
hivel=32
key=C7
lovel=0
offset=16037
sample=Marimba_soft_Sustain_PP_C7_RR1.opus
volume=4
</region>

<region>
hivel=32
key=D#6
lovel=0
offset=13537
sample=Marimba_soft_Sustain_PP_D#6_RR1.opus
volume=4
</region>

<region>
hivel=32
key=D6
lovel=0
offset=12826
sample=Marimba_soft_Sustain_PP_D6_RR1.opus
volume=4
</region>

<region>
hivel=32
key=E6
lovel=0
offset=13174
sample=Marimba_soft_Sustain_PP_E6_RR1.opus
volume=4
</region>

<region>
hivel=32
key=F#5
lovel=0
offset=13578
sample=Marimba_soft_Sustain_PP_F#5_RR1.opus
volume=4
</region>

<region>
hivel=32
key=F#6
lovel=0
offset=14045
sample=Marimba_soft_Sustain_PP_F#6_RR1.opus
volume=4
</region>

<region>
hivel=32
key=F6
lovel=0
offset=13526
sample=Marimba_soft_Sustain_PP_F6_RR1.opus
volume=4
</region>

<region>
hivel=32
key=G#5
lovel=0
offset=13528
sample=Marimba_soft_Sustain_PP_G#5_RR1.opus
volume=4
</region>

<region>
hivel=32
key=G#6
lovel=0
offset=1478
sample=Marimba_soft_Sustain_PP_G#6_RR1.opus
volume=4
</region>

<region>
hivel=32
key=G5
lovel=0
offset=15636
sample=Marimba_soft_Sustain_PP_G5_RR1.opus
volume=4
</region>

<region>
hivel=32
key=G6
lovel=0
offset=13495
sample=Marimba_soft_Sustain_PP_G6_RR1.opus
volume=4
</region>

<region>
hivel=32
key=A#2
lovel=0
offset=11038
sample=Marimba_soft_Sustain_PP_A#2_RR1.opus
volume=4
</region>

<region>
hivel=32
key=A#3
lovel=0
offset=14835
sample=Marimba_soft_Sustain_PP_A#3_RR1.opus
volume=4
</region>

<region>
hivel=32
key=A#4
lovel=0
offset=304
sample=Marimba_soft_Sustain_PP_A#4_RR1.opus
volume=4
</region>

<region>
hivel=32
key=A2
lovel=0
offset=13434
sample=Marimba_soft_Sustain_PP_A2_RR1.opus
volume=4
</region>

<region>
hivel=32
key=A3
lovel=0
offset=9955
sample=Marimba_soft_Sustain_PP_A3_RR1.opus
volume=4
</region>

<region>
hivel=32
key=A4
lovel=0
offset=539
sample=Marimba_soft_Sustain_PP_A4_RR1.opus
volume=4
</region>

<region>
hivel=32
key=B2
lovel=0
offset=14122
sample=Marimba_soft_Sustain_PP_B2_RR1.opus
volume=4
</region>

<region>
hivel=32
key=B3
lovel=0
offset=13994
sample=Marimba_soft_Sustain_PP_B3_RR1.opus
volume=4
</region>

<region>
hivel=32
key=B4
lovel=0
offset=13648
sample=Marimba_soft_Sustain_PP_B4_RR1.opus
volume=4
</region>

<region>
hivel=32
key=C#2
lovel=0
offset=17205
sample=Marimba_soft_Sustain_PP_C#2_RR1.opus
volume=4
</region>

<region>
hivel=32
key=C#3
lovel=0
offset=14684
sample=Marimba_soft_Sustain_PP_C#3_RR1.opus
volume=4
</region>

<region>
hivel=32
key=C#4
lovel=0
offset=6762
sample=Marimba_soft_Sustain_PP_C#4_RR1.opus
volume=4
</region>

<region>
hivel=32
key=C#5
lovel=0
offset=13820
sample=Marimba_soft_Sustain_PP_C#5_RR1.opus
volume=4
</region>

<region>
hivel=32
key=C2
lovel=0
offset=17830
sample=Marimba_soft_Sustain_PP_C2_RR1.opus
volume=4
</region>

<region>
hivel=32
key=C3
lovel=0
offset=14402
sample=Marimba_soft_Sustain_PP_C3_RR1.opus
volume=4
</region>

<region>
hivel=32
key=C4
lovel=0
offset=686
sample=Marimba_soft_Sustain_PP_C4_RR1.opus
volume=4
</region>

<region>
hivel=32
key=C5
lovel=0
offset=13285
sample=Marimba_soft_Sustain_PP_C5_RR1.opus
volume=4
</region>

<region>
hivel=32
key=D#2
lovel=0
offset=16434
sample=Marimba_soft_Sustain_PP_D#2_RR1.opus
volume=4
</region>

<region>
hivel=32
key=D#3
lovel=0
offset=11161
sample=Marimba_soft_Sustain_PP_D#3_RR1.opus
volume=4
</region>

<region>
hivel=32
key=D#4
lovel=0
offset=1963
sample=Marimba_soft_Sustain_PP_D#4_RR1.opus
volume=4
</region>

<region>
hivel=32
key=D#5
lovel=0
offset=13716
sample=Marimba_soft_Sustain_PP_D#5_RR1.opus
volume=4
</region>

<region>
hivel=32
key=D2
lovel=0
offset=15406
sample=Marimba_soft_Sustain_PP_D2_RR1.opus
volume=4
</region>

<region>
hivel=32
key=D3
lovel=0
offset=14112
sample=Marimba_soft_Sustain_PP_D3_RR1.opus
volume=4
</region>

<region>
hivel=32
key=D4
lovel=0
offset=13802
sample=Marimba_soft_Sustain_PP_D4_RR1.opus
volume=4
</region>

<region>
hivel=32
key=D5
lovel=0
offset=13629
sample=Marimba_soft_Sustain_PP_D5_RR1.opus
volume=4
</region>

<region>
hivel=32
key=E2
lovel=0
offset=15563
sample=Marimba_soft_Sustain_PP_E2_RR1.opus
volume=4
</region>

<region>
hivel=32
key=E3
lovel=0
offset=1636
sample=Marimba_soft_Sustain_PP_E3_RR1.opus
volume=4
</region>

<region>
hivel=32
key=E4
lovel=0
offset=14646
sample=Marimba_soft_Sustain_PP_E4_RR1.opus
volume=4
</region>

<region>
hivel=32
key=E5
lovel=0
offset=13616
sample=Marimba_soft_Sustain_PP_E5_RR1.opus
volume=4
</region>

<region>
hivel=32
key=F#2
lovel=0
offset=15946
sample=Marimba_soft_Sustain_PP_F#2_RR1.opus
volume=4
</region>

<region>
hivel=32
key=F#3
lovel=0
offset=1709
sample=Marimba_soft_Sustain_PP_F#3_RR1.opus
volume=4
</region>

<region>
hivel=32
key=F#4
lovel=0
offset=497
sample=Marimba_soft_Sustain_PP_F#4_RR1.opus
volume=4
</region>

<region>
hivel=32
key=F2
lovel=0
offset=16602
sample=Marimba_soft_Sustain_PP_F2_RR1.opus
volume=4
</region>

<region>
hivel=32
key=F3
lovel=0
offset=11491
sample=Marimba_soft_Sustain_PP_F3_RR1.opus
volume=4
</region>

<region>
hivel=32
key=F4
lovel=0
offset=663
sample=Marimba_soft_Sustain_PP_F4_RR1.opus
volume=4
</region>

<region>
hivel=32
key=F5
lovel=0
offset=13560
sample=Marimba_soft_Sustain_PP_F5_RR1.opus
volume=4
</region>

<region>
hivel=32
key=G#2
lovel=0
offset=8468
sample=Marimba_soft_Sustain_PP_G#2_RR1.opus
volume=4
</region>

<region>
hivel=32
key=G#3
lovel=0
offset=2685
sample=Marimba_soft_Sustain_PP_G#3_RR1.opus
volume=4
</region>

<region>
hivel=32
key=G#4
lovel=0
offset=907
sample=Marimba_soft_Sustain_PP_G#4_RR1.opus
volume=4
</region>

<region>
hivel=32
key=G2
lovel=0
offset=13289
sample=Marimba_soft_Sustain_PP_G2_RR1.opus
volume=4
</region>

<region>
hivel=32
key=G3
lovel=0
offset=10698
sample=Marimba_soft_Sustain_PP_G3_RR1.opus
volume=4
</region>

<region>
hivel=32
key=G4
lovel=0
offset=13830
sample=Marimba_soft_Sustain_PP_G4_RR1.opus
volume=4
</region>

<region>
hivel=64
key=A#2
lovel=33
sample=Marimba_soft_Sustain_MP_A#2_RR1.opus
</region>

<region>
hivel=64
key=A#3
lovel=33
sample=Marimba_soft_Sustain_MP_A#3_RR1.opus
</region>

<region>
hivel=64
key=A#4
lovel=33
offset=11936
sample=Marimba_soft_Sustain_MP_A#4_RR1.opus
</region>

<region>
hivel=64
key=A#5
lovel=33
sample=Marimba_soft_Sustain_MP_A#5_RR1.opus
</region>

<region>
hivel=64
key=A#6
lovel=33
offset=12971
sample=Marimba_soft_Sustain_MP_A#6_RR1.opus
</region>

<region>
hivel=64
key=A2
lovel=33
offset=12211
sample=Marimba_soft_Sustain_MP_A2_RR1.opus
</region>

<region>
hivel=64
key=A3
lovel=33
sample=Marimba_soft_Sustain_MP_A3_RR1.opus
</region>

<region>
hivel=64
key=a4
lovel=33
sample=Marimba_soft_Sustain_MP_A4_RR1.opus
</region>

<region>
hivel=64
key=A5
lovel=33
offset=7327
sample=Marimba_soft_Sustain_MP_A5_RR1.opus
</region>

<region>
hivel=64
key=A6
lovel=33
offset=12965
sample=Marimba_soft_Sustain_MP_A6_RR1.opus
</region>

<region>
hivel=64
key=B2
lovel=33
sample=Marimba_soft_Sustain_MP_B2_RR1.opus
</region>

<region>
hivel=64
key=B3
lovel=33
sample=Marimba_soft_Sustain_MP_B3_RR1.opus
</region>

<region>
hivel=64
key=B4
lovel=33
sample=Marimba_soft_Sustain_MP_B4_RR1.opus
</region>

<region>
hivel=64
key=B5
lovel=33
sample=Marimba_soft_Sustain_MP_B5_RR1.opus
</region>

<region>
hivel=64
key=B6
lovel=33
offset=13005
sample=Marimba_soft_Sustain_MP_B6_RR1.opus
</region>

<region>
hivel=64
key=C#2
lovel=33
offset=12981
sample=Marimba_soft_Sustain_MP_C#2_RR1.opus
</region>

<region>
hivel=64
key=C#3
lovel=33
sample=Marimba_soft_Sustain_MP_C#3_RR1.opus
</region>

<region>
hivel=64
key=C#4
lovel=33
sample=Marimba_soft_Sustain_MP_C#4_RR1.opus
</region>

<region>
hivel=64
key=C#5
lovel=33
sample=Marimba_soft_Sustain_MP_C#5_RR1.opus
</region>

<region>
hivel=64
key=C#6
lovel=33
sample=Marimba_soft_Sustain_MP_C#6_RR1.opus
</region>

<region>
hivel=64
key=C2
lovel=33
sample=Marimba_soft_Sustain_MP_C2_RR1.opus
</region>

<region>
hivel=64
key=C3
lovel=33
sample=Marimba_soft_Sustain_MP_C3_RR1.opus
</region>

<region>
hivel=64
key=C4
lovel=33
sample=Marimba_soft_Sustain_MP_C4_RR1.opus
</region>

<region>
hivel=64
key=C5
lovel=33
sample=Marimba_soft_Sustain_MP_C5_RR1.opus
</region>

<region>
hivel=64
key=C6
lovel=33
offset=10055
sample=Marimba_soft_Sustain_MP_C6_RR1.opus
</region>

<region>
hivel=64
key=C7
lovel=33
offset=12984
sample=Marimba_soft_Sustain_MP_C7_RR1.opus
</region>

<region>
hivel=64
key=D#2
lovel=33
offset=7501
sample=Marimba_soft_Sustain_MP_D#2_RR1.opus
</region>

<region>
hivel=64
key=D#3
lovel=33
sample=Marimba_soft_Sustain_MP_D#3_RR1.opus
</region>

<region>
hivel=64
key=D#4
lovel=33
sample=Marimba_soft_Sustain_MP_D#4_RR1.opus
</region>

<region>
hivel=64
key=D#5
lovel=33
sample=Marimba_soft_Sustain_MP_D#5_RR1.opus
</region>

<region>
hivel=64
key=D#6
lovel=33
sample=Marimba_soft_Sustain_MP_D#6_RR1.opus
</region>

<region>
hivel=64
key=D2
lovel=33
offset=13061
sample=Marimba_soft_Sustain_MP_D2_RR1.opus
</region>

<region>
hivel=64
key=D3
lovel=33
sample=Marimba_soft_Sustain_MP_D3_RR1.opus
</region>

<region>
hivel=64
key=D4
lovel=33
sample=Marimba_soft_Sustain_MP_D4_RR1.opus
</region>

<region>
hivel=64
key=D5
lovel=33
sample=Marimba_soft_Sustain_MP_D5_RR1.opus
</region>

<region>
hivel=64
key=D6
lovel=33
offset=13006
sample=Marimba_soft_Sustain_MP_D6_RR1.opus
</region>

<region>
hivel=64
key=E2
lovel=33
offset=12873
sample=Marimba_soft_Sustain_MP_E2_RR1.opus
</region>

<region>
hivel=64
key=E3
lovel=33
sample=Marimba_soft_Sustain_MP_E3_RR1.opus
</region>

<region>
hivel=64
key=E4
lovel=33
sample=Marimba_soft_Sustain_MP_E4_RR1.opus
</region>

<region>
hivel=64
key=E5
lovel=33
sample=Marimba_soft_Sustain_MP_E5_RR1.opus
</region>

<region>
hivel=64
key=E6
lovel=33
offset=11404
sample=Marimba_soft_Sustain_MP_E6_RR1.opus
</region>

<region>
hivel=64
key=F#2
lovel=33
offset=12988
sample=Marimba_soft_Sustain_MP_F#2_RR1.opus
</region>

<region>
hivel=64
key=F#3
lovel=33
sample=Marimba_soft_Sustain_MP_F#3_RR1.opus
</region>

<region>
hivel=64
key=F#4
lovel=33
sample=Marimba_soft_Sustain_MP_F#4_RR1.opus
</region>

<region>
hivel=64
key=F#5
lovel=33
sample=Marimba_soft_Sustain_MP_F#5_RR1.opus
</region>

<region>
hivel=64
key=F#6
lovel=33
offset=12711
sample=Marimba_soft_Sustain_MP_F#6_RR1.opus
</region>

<region>
hivel=64
key=F2
lovel=33
offset=12985
sample=Marimba_soft_Sustain_MP_F2_RR1.opus
</region>

<region>
hivel=64
key=F3
lovel=33
sample=Marimba_soft_Sustain_MP_F3_RR1.opus
</region>

<region>
hivel=64
key=F4
lovel=33
sample=Marimba_soft_Sustain_MP_F4_RR1.opus
</region>

<region>
hivel=64
key=F5
lovel=33
sample=Marimba_soft_Sustain_MP_F5_RR1.opus
</region>

<region>
hivel=64
key=F6
lovel=33
offset=12298
sample=Marimba_soft_Sustain_MP_F6_RR1.opus
</region>

<region>
hivel=64
key=G#2
lovel=33
sample=Marimba_soft_Sustain_MP_G#2_RR1.opus
</region>

<region>
hivel=64
key=G#3
lovel=33
sample=Marimba_soft_Sustain_MP_G#3_RR1.opus
</region>

<region>
hivel=64
key=G#4
lovel=33
sample=Marimba_soft_Sustain_MP_G#4_RR1.opus
</region>

<region>
hivel=64
key=G#5
lovel=33
sample=Marimba_soft_Sustain_MP_G#5_RR1.opus
</region>

<region>
hivel=64
key=G#6
lovel=33
offset=12993
sample=Marimba_soft_Sustain_MP_G#6_RR1.opus
</region>

<region>
hivel=64
key=G2
lovel=33
offset=12993
sample=Marimba_soft_Sustain_MP_G2_RR1.opus
</region>

<region>
hivel=64
key=G3
lovel=33
sample=Marimba_soft_Sustain_MP_G3_RR1.opus
</region>

<region>
hivel=64
key=G4
lovel=33
sample=Marimba_soft_Sustain_MP_G4_RR1.opus
</region>

<region>
hivel=64
key=G5
lovel=33
sample=Marimba_soft_Sustain_MP_G5_RR1.opus
</region>

<region>
hivel=64
key=G6
lovel=33
offset=13011
sample=Marimba_soft_Sustain_MP_G6_RR1.opus
</region>

<region>
hivel=96
key=A#2
lovel=65
sample=Marimba_soft_Sustain_MF_A#2_RR1.opus
</region>

<region>
hivel=96
key=A#3
lovel=65
sample=Marimba_soft_Sustain_MF_A#3_RR1.opus
</region>

<region>
hivel=96
key=A#4
lovel=65
sample=Marimba_soft_Sustain_MF_A#4_RR1.opus
</region>

<region>
hivel=96
key=A#5
lovel=65
sample=Marimba_soft_Sustain_MF_A#5_RR1.opus
</region>

<region>
hivel=96
key=A#6
lovel=65
sample=Marimba_soft_Sustain_MF_A#6_RR1.opus
</region>

<region>
hivel=96
key=A2
lovel=65
sample=Marimba_soft_Sustain_MF_A2_RR1.opus
</region>

<region>
hivel=96
key=A3
lovel=65
sample=Marimba_soft_Sustain_MF_A3_RR1.opus
</region>

<region>
hivel=96
key=A4
lovel=65
sample=Marimba_soft_Sustain_MF_A4_RR1.opus
</region>

<region>
hivel=96
key=A5
lovel=65
sample=Marimba_soft_Sustain_MF_A5_RR1.opus
</region>

<region>
hivel=96
key=A6
lovel=65
sample=Marimba_soft_Sustain_MF_A6_RR1.opus
</region>

<region>
hivel=96
key=B2
lovel=65
sample=Marimba_soft_Sustain_MF_B2_RR1.opus
</region>

<region>
hivel=96
key=B3
lovel=65
sample=Marimba_soft_Sustain_MF_B3_RR1.opus
</region>

<region>
hivel=96
key=B4
lovel=65
sample=Marimba_soft_Sustain_MF_B4_RR1.opus
</region>

<region>
hivel=96
key=B5
lovel=65
sample=Marimba_soft_Sustain_MF_B5_RR1.opus
</region>

<region>
hivel=96
key=B6
lovel=65
sample=Marimba_soft_Sustain_MF_B6_RR1.opus
</region>

<region>
hivel=96
key=C#2
lovel=65
sample=Marimba_soft_Sustain_MF_C#2_RR1.opus
</region>

<region>
hivel=96
key=C#3
lovel=65
sample=Marimba_soft_Sustain_MF_C#3_RR1.opus
</region>

<region>
hivel=96
key=C#4
lovel=65
sample=Marimba_soft_Sustain_MF_C#4_RR1.opus
</region>

<region>
hivel=96
key=C#5
lovel=65
sample=Marimba_soft_Sustain_MF_C#5_RR1.opus
</region>

<region>
hivel=96
key=C#6
lovel=65
sample=Marimba_soft_Sustain_MF_C#6_RR1.opus
</region>

<region>
hivel=96
key=C2
lovel=65
sample=Marimba_soft_Sustain_MF_C2_RR1.opus
</region>

<region>
hivel=96
key=C3
lovel=65
sample=Marimba_soft_Sustain_MF_C3_RR1.opus
</region>

<region>
hivel=96
key=C4
lovel=65
sample=Marimba_soft_Sustain_MF_C4_RR1.opus
</region>

<region>
hivel=96
key=C5
lovel=65
sample=Marimba_soft_Sustain_MF_C5_RR1.opus
</region>

<region>
hivel=96
key=C6
lovel=65
sample=Marimba_soft_Sustain_MF_C6_RR1.opus
</region>

<region>
hivel=96
key=C7
lovel=65
offset=8820
sample=Marimba_soft_Sustain_MF_C7_RR1.opus
</region>

<region>
hivel=96
key=D#2
lovel=65
sample=Marimba_soft_Sustain_MF_D#2_RR1.opus
</region>

<region>
hivel=96
key=D#3
lovel=65
sample=Marimba_soft_Sustain_MF_D#3_RR1.opus
</region>

<region>
hivel=96
key=D#4
lovel=65
sample=Marimba_soft_Sustain_MF_D#4_RR1.opus
</region>

<region>
hivel=96
key=D#5
lovel=65
sample=Marimba_soft_Sustain_MF_D#5_RR1.opus
</region>

<region>
hivel=96
key=D#6
lovel=65
sample=Marimba_soft_Sustain_MF_D#6_RR1.opus
</region>

<region>
hivel=96
key=D2
lovel=65
sample=Marimba_soft_Sustain_MF_D2_RR1.opus
</region>

<region>
hivel=96
key=D3
lovel=65
sample=Marimba_soft_Sustain_MF_D3_RR1.opus
</region>

<region>
hivel=96
key=D4
lovel=65
sample=Marimba_soft_Sustain_MF_D4_RR1.opus
</region>

<region>
hivel=96
key=D5
lovel=65
sample=Marimba_soft_Sustain_MF_D5_RR1.opus
</region>

<region>
hivel=96
key=D6
lovel=65
sample=Marimba_soft_Sustain_MF_D6_RR1.opus
</region>

<region>
hivel=96
key=E2
lovel=65
sample=Marimba_soft_Sustain_MF_E2_RR1.opus
</region>

<region>
hivel=96
key=E3
lovel=65
sample=Marimba_soft_Sustain_MF_E3_RR1.opus
</region>

<region>
hivel=96
key=E4
lovel=65
sample=Marimba_soft_Sustain_MF_E4_RR1.opus
</region>

<region>
hivel=96
key=E5
lovel=65
sample=Marimba_soft_Sustain_MF_E5_RR1.opus
</region>

<region>
hivel=96
key=E6
lovel=65
sample=Marimba_soft_Sustain_MF_E6_RR1.opus
</region>

<region>
hivel=96
key=F#2
lovel=65
sample=Marimba_soft_Sustain_MF_F#2_RR1.opus
</region>

<region>
hivel=96
key=F#3
lovel=65
sample=Marimba_soft_Sustain_MF_F#3_RR1.opus
</region>

<region>
hivel=96
key=F#4
lovel=65
sample=Marimba_soft_Sustain_MF_F#4_RR1.opus
</region>

<region>
hivel=96
key=F#5
lovel=65
sample=Marimba_soft_Sustain_MF_F#5_RR1.opus
</region>

<region>
hivel=96
key=F#6
lovel=65
sample=Marimba_soft_Sustain_MF_F#6_RR1.opus
</region>

<region>
hivel=96
key=F2
lovel=65
sample=Marimba_soft_Sustain_MF_F2_RR1.opus
</region>

<region>
hivel=96
key=F3
lovel=65
sample=Marimba_soft_Sustain_MF_F3_RR1.opus
</region>

<region>
hivel=96
key=F4
lovel=65
sample=Marimba_soft_Sustain_MF_F4_RR1.opus
</region>

<region>
hivel=96
key=F5
lovel=65
sample=Marimba_soft_Sustain_MF_F5_RR1.opus
</region>

<region>
hivel=96
key=F6
lovel=65
sample=Marimba_soft_Sustain_MF_F6_RR1.opus
</region>

<region>
hivel=96
key=G#2
lovel=65
sample=Marimba_soft_Sustain_MF_G#2_RR1.opus
</region>

<region>
hivel=96
key=G#3
lovel=65
sample=Marimba_soft_Sustain_MF_G#3_RR1.opus
</region>

<region>
hivel=96
key=G#4
lovel=65
sample=Marimba_soft_Sustain_MF_G#4_RR1.opus
</region>

<region>
hivel=96
key=G#5
lovel=65
sample=Marimba_soft_Sustain_MF_G#5_RR1.opus
</region>

<region>
hivel=96
key=G#6
lovel=65
sample=Marimba_soft_Sustain_MF_G#6_RR1.opus
</region>

<region>
hivel=96
key=G2
lovel=65
sample=Marimba_soft_Sustain_MF_G2_RR1.opus
</region>

<region>
hivel=96
key=G3
lovel=65
sample=Marimba_soft_Sustain_MF_G3_RR1.opus
</region>

<region>
hivel=96
key=G4
lovel=65
sample=Marimba_soft_Sustain_MF_G4_RR1.opus
</region>

<region>
hivel=96
key=G5
lovel=65
sample=Marimba_soft_Sustain_MF_G5_RR1.opus
</region>

<region>
hivel=96
key=G6
lovel=65
sample=Marimba_soft_Sustain_MF_G6_RR1.opus
</region>

<region>
hivel=127
key=A#6
lovel=97
offset=12458
sample=Marimba_soft_Sustain_FF_A#6_RR1.opus
</region>

<region>
hivel=127
key=A6
lovel=97
offset=12838
sample=Marimba_soft_Sustain_FF_A6_RR1.opus
</region>

<region>
hivel=127
key=B6
lovel=97
offset=12976
sample=Marimba_soft_Sustain_FF_B6_RR1.opus
</region>

<region>
hivel=127
key=C7
lovel=97
offset=12978
sample=Marimba_soft_Sustain_FF_C7_RR1.opus
</region>

<region>
hivel=127
key=F#6
lovel=97
offset=11945
sample=Marimba_soft_Sustain_FF_F#6_RR1.opus
</region>

<region>
hivel=127
key=G#6
lovel=97
offset=12991
sample=Marimba_soft_Sustain_FF_G#6_RR1.opus
</region>

<region>
hivel=127
key=G6
lovel=97
offset=12983
sample=Marimba_soft_Sustain_FF_G6_RR1.opus
</region>

<region>
hivel=127
key=A#2
lovel=97
sample=Marimba_soft_Sustain_FF_A#2_RR1.opus
</region>

<region>
hivel=127
key=A#3
lovel=97
sample=Marimba_soft_Sustain_FF_A#3_RR1.opus
</region>

<region>
hivel=127
key=A#4
lovel=97
sample=Marimba_soft_Sustain_FF_A#4_RR1.opus
</region>

<region>
hivel=127
key=A#5
lovel=97
sample=Marimba_soft_Sustain_FF_A#5_RR1.opus
</region>

<region>
hivel=127
key=A2
lovel=97
offset=6376
sample=Marimba_soft_Sustain_FF_A2_RR1.opus
</region>

<region>
hivel=127
key=A3
lovel=97
sample=Marimba_soft_Sustain_FF_A3_RR1.opus
</region>

<region>
hivel=127
key=A4
lovel=97
sample=Marimba_soft_Sustain_FF_A4_RR1.opus
</region>

<region>
hivel=127
key=A5
lovel=97
sample=Marimba_soft_Sustain_FF_A5_RR1.opus
</region>

<region>
hivel=127
key=B2
lovel=97
sample=Marimba_soft_Sustain_FF_B2_RR1.opus
</region>

<region>
hivel=127
key=B3
lovel=97
sample=Marimba_soft_Sustain_FF_B3_RR1.opus
</region>

<region>
hivel=127
key=B4
lovel=97
sample=Marimba_soft_Sustain_FF_B4_RR1.opus
</region>

<region>
hivel=127
key=B5
lovel=97
sample=Marimba_soft_Sustain_FF_B5_RR1.opus
</region>

<region>
hivel=127
key=C#2
lovel=97
offset=12989
sample=Marimba_soft_Sustain_FF_C#2_RR1.opus
</region>

<region>
hivel=127
key=C#3
lovel=97
sample=Marimba_soft_Sustain_FF_C#3_RR1.opus
</region>

<region>
hivel=127
key=C#4
lovel=97
sample=Marimba_soft_Sustain_FF_C#4_RR1.opus
</region>

<region>
hivel=127
key=C#5
lovel=97
sample=Marimba_soft_Sustain_FF_C#5_RR1.opus
</region>

<region>
hivel=127
key=C#6
lovel=97
offset=9952
sample=Marimba_soft_Sustain_FF_C#6_RR1.opus
</region>

<region>
hivel=127
key=C2
lovel=97
offset=12998
sample=Marimba_soft_Sustain_FF_C2_RR1.opus
</region>

<region>
hivel=127
key=C3
lovel=97
sample=Marimba_soft_Sustain_FF_C3_RR1.opus
</region>

<region>
hivel=127
key=C4
lovel=97
sample=Marimba_soft_Sustain_FF_C4_RR1.opus
</region>

<region>
hivel=127
key=C5
lovel=97
sample=Marimba_soft_Sustain_FF_C5_RR1.opus
</region>

<region>
hivel=127
key=C6
lovel=97
sample=Marimba_soft_Sustain_FF_C6_RR1.opus
</region>

<region>
hivel=127
key=D#2
lovel=97
offset=12328
sample=Marimba_soft_Sustain_FF_D#2_RR1.opus
</region>

<region>
hivel=127
key=D#3
lovel=97
sample=Marimba_soft_Sustain_FF_D#3_RR1.opus
</region>

<region>
hivel=127
key=D#4
lovel=97
sample=Marimba_soft_Sustain_FF_D#4_RR1.opus
</region>

<region>
hivel=127
key=D#5
lovel=97
sample=Marimba_soft_Sustain_FF_D#5_RR1.opus
</region>

<region>
hivel=127
key=D#6
lovel=97
sample=Marimba_soft_Sustain_FF_D#6_RR1.opus
</region>

<region>
hivel=127
key=D2
lovel=97
offset=10809
sample=Marimba_soft_Sustain_FF_D2_RR1.opus
</region>

<region>
hivel=127
key=D3
lovel=97
sample=Marimba_soft_Sustain_FF_D3_RR1.opus
</region>

<region>
hivel=127
key=D4
lovel=97
sample=Marimba_soft_Sustain_FF_D4_RR1.opus
</region>

<region>
hivel=127
key=D5
lovel=97
sample=Marimba_soft_Sustain_FF_D5_RR1.opus
</region>

<region>
hivel=127
key=D6
lovel=97
sample=Marimba_soft_Sustain_FF_D6_RR1.opus
</region>

<region>
hivel=127
key=E2
lovel=97
offset=13006
sample=Marimba_soft_Sustain_FF_E2_RR1.opus
</region>

<region>
hivel=127
key=E3
lovel=97
sample=Marimba_soft_Sustain_FF_E3_RR1.opus
</region>

<region>
hivel=127
key=E4
lovel=97
sample=Marimba_soft_Sustain_FF_E4_RR1.opus
</region>

<region>
hivel=127
key=E5
lovel=97
sample=Marimba_soft_Sustain_FF_E5_RR1.opus
</region>

<region>
hivel=127
key=E6
lovel=97
sample=Marimba_soft_Sustain_FF_E6_RR1.opus
</region>

<region>
hivel=127
key=F#2
lovel=97
offset=9750
sample=Marimba_soft_Sustain_FF_F#2_RR1.opus
</region>

<region>
hivel=127
key=F#3
lovel=97
sample=Marimba_soft_Sustain_FF_F#3_RR1.opus
</region>

<region>
hivel=127
key=F#4
lovel=97
sample=Marimba_soft_Sustain_FF_F#4_RR1.opus
</region>

<region>
hivel=127
key=F#5
lovel=97
offset=2584
sample=Marimba_soft_Sustain_FF_F#5_RR1.opus
</region>

<region>
hivel=127
key=F2
lovel=97
offset=12501
sample=Marimba_soft_Sustain_FF_F2_RR1.opus
</region>

<region>
hivel=127
key=F3
lovel=97
sample=Marimba_soft_Sustain_FF_F3_RR1.opus
</region>

<region>
hivel=127
key=F4
lovel=97
sample=Marimba_soft_Sustain_FF_F4_RR1.opus
</region>

<region>
hivel=127
key=F5
lovel=97
sample=Marimba_soft_Sustain_FF_F5_RR1.opus
</region>

<region>
hivel=127
key=F6
lovel=97
offset=12930
sample=Marimba_soft_Sustain_FF_F6_RR1.opus
</region>

<region>
hivel=127
key=G#2
lovel=97
sample=Marimba_soft_Sustain_FF_G#2_RR1.opus
</region>

<region>
hivel=127
key=G#3
lovel=97
sample=Marimba_soft_Sustain_FF_G#3_RR1.opus
</region>

<region>
hivel=127
key=G#4
lovel=97
sample=Marimba_soft_Sustain_FF_G#4_RR1.opus
</region>

<region>
hivel=127
key=G#5
lovel=97
sample=Marimba_soft_Sustain_FF_G#5_RR1.opus
</region>

<region>
hivel=127
key=G2
lovel=97
sample=Marimba_soft_Sustain_FF_G2_RR1.opus
</region>

<region>
hivel=127
key=G3
lovel=97
sample=Marimba_soft_Sustain_FF_G3_RR1.opus
</region>

<region>
hivel=127
key=G4
lovel=97
sample=Marimba_soft_Sustain_FF_G4_RR1.opus
</region>

<region>
hivel=127
key=G5
lovel=97
sample=Marimba_soft_Sustain_FF_G5_RR1.opus
</region>
</group>

<group>
group_label=RR2
seq_length=3
seq_position=2

<region>
hivel=32
key=A#5
lovel=0
offset=13421
sample=Marimba_soft_Sustain_PP_A#5_RR2.opus
volume=4
</region>

<region>
hivel=32
key=A#6
lovel=0
offset=14476
sample=Marimba_soft_Sustain_PP_A#6_RR2.opus
volume=4
</region>

<region>
hivel=32
key=A5
lovel=0
offset=13549
sample=Marimba_soft_Sustain_PP_A5_RR2.opus
volume=4
</region>

<region>
hivel=32
key=A6
lovel=0
offset=13519
sample=Marimba_soft_Sustain_PP_A6_RR2.opus
volume=4
</region>

<region>
hivel=32
key=B5
lovel=0
offset=13519
sample=Marimba_soft_Sustain_PP_B5_RR2.opus
volume=4
</region>

<region>
hivel=32
key=B6
lovel=0
offset=15277
sample=Marimba_soft_Sustain_PP_B6_RR2.opus
volume=4
</region>

<region>
hivel=32
key=C#6
lovel=0
offset=13509
sample=Marimba_soft_Sustain_PP_C#6_RR2.opus
volume=4
</region>

<region>
hivel=32
key=C6
lovel=0
offset=13532
sample=Marimba_soft_Sustain_PP_C6_RR2.opus
volume=4
</region>

<region>
hivel=32
key=C7
lovel=0
offset=12421
sample=Marimba_soft_Sustain_PP_C7_RR2.opus
volume=4
</region>

<region>
hivel=32
key=D#6
lovel=0
offset=13452
sample=Marimba_soft_Sustain_PP_D#6_RR2.opus
volume=4
</region>

<region>
hivel=32
key=D6
lovel=0
offset=13907
sample=Marimba_soft_Sustain_PP_D6_RR2.opus
volume=4
</region>

<region>
hivel=32
key=E6
lovel=0
offset=15195
sample=Marimba_soft_Sustain_PP_E6_RR2.opus
volume=4
</region>

<region>
hivel=32
key=F#5
lovel=0
offset=13612
sample=Marimba_soft_Sustain_PP_F#5_RR2.opus
volume=4
</region>

<region>
hivel=32
key=F#6
lovel=0
offset=14858
sample=Marimba_soft_Sustain_PP_F#6_RR2.opus
volume=4
</region>

<region>
hivel=32
key=F6
lovel=0
offset=13498
sample=Marimba_soft_Sustain_PP_F6_RR2.opus
volume=4
</region>

<region>
hivel=32
key=G#5
lovel=0
offset=13574
sample=Marimba_soft_Sustain_PP_G#5_RR2.opus
volume=4
</region>

<region>
hivel=32
key=G#6
lovel=0
offset=4442
sample=Marimba_soft_Sustain_PP_G#6_RR2.opus
volume=4
</region>

<region>
hivel=32
key=G5
lovel=0
offset=13530
sample=Marimba_soft_Sustain_PP_G5_RR2.opus
volume=4
</region>

<region>
hivel=32
key=G6
lovel=0
offset=13539
sample=Marimba_soft_Sustain_PP_G6_RR2.opus
volume=4
</region>

<region>
hivel=32
key=A#2
lovel=0
offset=14581
sample=Marimba_soft_Sustain_PP_A#2_RR2.opus
volume=4
</region>

<region>
hivel=32
key=A#3
lovel=0
offset=6450
sample=Marimba_soft_Sustain_PP_A#3_RR2.opus
volume=4
</region>

<region>
hivel=32
key=A#4
lovel=0
offset=308
sample=Marimba_soft_Sustain_PP_A#4_RR2.opus
volume=4
</region>

<region>
hivel=32
key=A2
lovel=0
offset=14599
sample=Marimba_soft_Sustain_PP_A2_RR2.opus
volume=4
</region>

<region>
hivel=32
key=A3
lovel=0
offset=5771
sample=Marimba_soft_Sustain_PP_A3_RR2.opus
volume=4
</region>

<region>
hivel=32
key=A4
lovel=0
offset=541
sample=Marimba_soft_Sustain_PP_A4_RR2.opus
volume=4
</region>

<region>
hivel=32
key=B2
lovel=0
offset=14053
sample=Marimba_soft_Sustain_PP_B2_RR2.opus
volume=4
</region>

<region>
hivel=32
key=B3
lovel=0
offset=13574
sample=Marimba_soft_Sustain_PP_B3_RR2.opus
volume=4
</region>

<region>
hivel=32
key=B4
lovel=0
offset=13778
sample=Marimba_soft_Sustain_PP_B4_RR2.opus
volume=4
</region>

<region>
hivel=32
key=C#2
lovel=0
offset=15404
sample=Marimba_soft_Sustain_PP_C#2_RR2.opus
volume=4
</region>

<region>
hivel=32
key=C#3
lovel=0
offset=15344
sample=Marimba_soft_Sustain_PP_C#3_RR2.opus
volume=4
</region>

<region>
hivel=32
key=C#4
lovel=0
offset=1173
sample=Marimba_soft_Sustain_PP_C#4_RR2.opus
volume=4
</region>

<region>
hivel=32
key=C#5
lovel=0
offset=13709
sample=Marimba_soft_Sustain_PP_C#5_RR2.opus
volume=4
</region>

<region>
hivel=32
key=C2
lovel=0
offset=19535
sample=Marimba_soft_Sustain_PP_C2_RR2.opus
volume=4
</region>

<region>
hivel=32
key=C3
lovel=0
offset=13479
sample=Marimba_soft_Sustain_PP_C3_RR2.opus
volume=4
</region>

<region>
hivel=32
key=C4
lovel=0
offset=700
sample=Marimba_soft_Sustain_PP_C4_RR2.opus
volume=4
</region>

<region>
hivel=32
key=C5
lovel=0
offset=12456
sample=Marimba_soft_Sustain_PP_C5_RR2.opus
volume=4
</region>

<region>
hivel=32
key=D#2
lovel=0
offset=13442
sample=Marimba_soft_Sustain_PP_D#2_RR2.opus
volume=4
</region>

<region>
hivel=32
key=D#3
lovel=0
offset=1402
sample=Marimba_soft_Sustain_PP_D#3_RR2.opus
volume=4
</region>

<region>
hivel=32
key=D#4
lovel=0
offset=1955
sample=Marimba_soft_Sustain_PP_D#4_RR2.opus
volume=4
</region>

<region>
hivel=32
key=D#5
lovel=0
offset=13680
sample=Marimba_soft_Sustain_PP_D#5_RR2.opus
volume=4
</region>

<region>
hivel=32
key=D2
lovel=0
offset=13656
sample=Marimba_soft_Sustain_PP_D2_RR2.opus
volume=4
</region>

<region>
hivel=32
key=D3
lovel=0
offset=15619
sample=Marimba_soft_Sustain_PP_D3_RR2.opus
volume=4
</region>

<region>
hivel=32
key=D4
lovel=0
offset=12066
sample=Marimba_soft_Sustain_PP_D4_RR2.opus
volume=4
</region>

<region>
hivel=32
key=D5
lovel=0
offset=13625
sample=Marimba_soft_Sustain_PP_D5_RR2.opus
volume=4
</region>

<region>
hivel=32
key=E2
lovel=0
offset=14948
sample=Marimba_soft_Sustain_PP_E2_RR2.opus
volume=4
</region>

<region>
hivel=32
key=E3
lovel=0
offset=10345
sample=Marimba_soft_Sustain_PP_E3_RR2.opus
volume=4
</region>

<region>
hivel=32
key=E4
lovel=0
offset=1283
sample=Marimba_soft_Sustain_PP_E4_RR2.opus
volume=4
</region>

<region>
hivel=32
key=E5
lovel=0
offset=13622
sample=Marimba_soft_Sustain_PP_E5_RR2.opus
volume=4
</region>

<region>
hivel=32
key=F#2
lovel=0
offset=13573
sample=Marimba_soft_Sustain_PP_F#2_RR2.opus
volume=4
</region>

<region>
hivel=32
key=F#3
lovel=0
offset=1953
sample=Marimba_soft_Sustain_PP_F#3_RR2.opus
volume=4
</region>

<region>
hivel=32
key=F#4
lovel=0
offset=8267
sample=Marimba_soft_Sustain_PP_F#4_RR2.opus
volume=4
</region>

<region>
hivel=32
key=F2
lovel=0
offset=13420
sample=Marimba_soft_Sustain_PP_F2_RR2.opus
volume=4
</region>

<region>
hivel=32
key=F3
lovel=0
offset=14159
sample=Marimba_soft_Sustain_PP_F3_RR2.opus
volume=4
</region>

<region>
hivel=32
key=F4
lovel=0
offset=925
sample=Marimba_soft_Sustain_PP_F4_RR2.opus
volume=4
</region>

<region>
hivel=32
key=F5
lovel=0
offset=13321
sample=Marimba_soft_Sustain_PP_F5_RR2.opus
volume=4
</region>

<region>
hivel=32
key=G#2
lovel=0
offset=17738
sample=Marimba_soft_Sustain_PP_G#2_RR2.opus
volume=4
</region>

<region>
hivel=32
key=G#3
lovel=0
offset=2464
sample=Marimba_soft_Sustain_PP_G#3_RR2.opus
volume=4
</region>

<region>
hivel=32
key=G#4
lovel=0
offset=14399
sample=Marimba_soft_Sustain_PP_G#4_RR2.opus
volume=4
</region>

<region>
hivel=32
key=G2
lovel=0
offset=12663
sample=Marimba_soft_Sustain_PP_G2_RR2.opus
volume=4
</region>

<region>
hivel=32
key=G3
lovel=0
offset=1160
sample=Marimba_soft_Sustain_PP_G3_RR2.opus
volume=4
</region>

<region>
hivel=32
key=G4
lovel=0
offset=14071
sample=Marimba_soft_Sustain_PP_G4_RR2.opus
volume=4
</region>

<region>
hivel=64
key=A#2
lovel=33
sample=Marimba_soft_Sustain_MP_A#2_RR2.opus
</region>

<region>
hivel=64
key=A#3
lovel=33
sample=Marimba_soft_Sustain_MP_A#3_RR2.opus
</region>

<region>
hivel=64
key=A#4
lovel=33
sample=Marimba_soft_Sustain_MP_A#4_RR2.opus
</region>

<region>
hivel=64
key=A#5
lovel=33
sample=Marimba_soft_Sustain_MP_A#5_RR2.opus
</region>

<region>
hivel=64
key=A#6
lovel=33
offset=13009
sample=Marimba_soft_Sustain_MP_A#6_RR2.opus
</region>

<region>
hivel=64
key=A2
lovel=33
offset=12577
sample=Marimba_soft_Sustain_MP_A2_RR2.opus
</region>

<region>
hivel=64
key=A3
lovel=33
sample=Marimba_soft_Sustain_MP_A3_RR2.opus
</region>

<region>
hivel=64
key=A4
lovel=33
sample=Marimba_soft_Sustain_MP_A4_RR2.opus
</region>

<region>
hivel=64
key=A5
lovel=33
sample=Marimba_soft_Sustain_MP_A5_RR2.opus
</region>

<region>
hivel=64
key=A6
lovel=33
offset=13009
sample=Marimba_soft_Sustain_MP_A6_RR2.opus
</region>

<region>
hivel=64
key=B2
lovel=33
sample=Marimba_soft_Sustain_MP_B2_RR2.opus
</region>

<region>
hivel=64
key=B3
lovel=33
sample=Marimba_soft_Sustain_MP_B3_RR2.opus
</region>

<region>
hivel=64
key=B4
lovel=33
sample=Marimba_soft_Sustain_MP_B4_RR2.opus
</region>

<region>
hivel=64
key=B5
lovel=33
offset=8526
sample=Marimba_soft_Sustain_MP_B5_RR2.opus
</region>

<region>
hivel=64
key=B6
lovel=33
offset=12980
sample=Marimba_soft_Sustain_MP_B6_RR2.opus
</region>

<region>
hivel=64
key=C#2
lovel=33
offset=13016
sample=Marimba_soft_Sustain_MP_C#2_RR2.opus
</region>

<region>
hivel=64
key=C#3
lovel=33
sample=Marimba_soft_Sustain_MP_C#3_RR2.opus
</region>

<region>
hivel=64
key=C#4
lovel=33
sample=Marimba_soft_Sustain_MP_C#4_RR2.opus
</region>

<region>
hivel=64
key=C#5
lovel=33
sample=Marimba_soft_Sustain_MP_C#5_RR2.opus
</region>

<region>
hivel=64
key=C#6
lovel=33
offset=12973
sample=Marimba_soft_Sustain_MP_C#6_RR2.opus
</region>

<region>
hivel=64
key=C2
lovel=33
offset=3537
sample=Marimba_soft_Sustain_MP_C2_RR2.opus
</region>

<region>
hivel=64
key=C3
lovel=33
sample=Marimba_soft_Sustain_MP_C3_RR2.opus
</region>

<region>
hivel=64
key=C4
lovel=33
sample=Marimba_soft_Sustain_MP_C4_RR2.opus
</region>

<region>
hivel=64
key=C5
lovel=33
sample=Marimba_soft_Sustain_MP_C5_RR2.opus
</region>

<region>
hivel=64
key=C6
lovel=33
offset=12988
sample=Marimba_soft_Sustain_MP_C6_RR2.opus
</region>

<region>
hivel=64
key=C7
lovel=33
offset=13003
sample=Marimba_soft_Sustain_MP_C7_RR2.opus
</region>

<region>
hivel=64
key=D#2
lovel=33
offset=8190
sample=Marimba_soft_Sustain_MP_D#2_RR2.opus
</region>

<region>
hivel=64
key=D#3
lovel=33
sample=Marimba_soft_Sustain_MP_D#3_RR2.opus
</region>

<region>
hivel=64
key=D#4
lovel=33
sample=Marimba_soft_Sustain_MP_D#4_RR2.opus
</region>

<region>
hivel=64
key=D#5
lovel=33
sample=Marimba_soft_Sustain_MP_D#5_RR2.opus
</region>

<region>
hivel=64
key=D#6
lovel=33
sample=Marimba_soft_Sustain_MP_D#6_RR2.opus
</region>

<region>
hivel=64
key=D2
lovel=33
offset=13000
sample=Marimba_soft_Sustain_MP_D2_RR2.opus
</region>

<region>
hivel=64
key=D3
lovel=33
sample=Marimba_soft_Sustain_MP_D3_RR2.opus
</region>

<region>
hivel=64
key=D4
lovel=33
sample=Marimba_soft_Sustain_MP_D4_RR2.opus
</region>

<region>
hivel=64
key=D5
lovel=33
sample=Marimba_soft_Sustain_MP_D5_RR2.opus
</region>

<region>
hivel=64
key=D6
lovel=33
offset=12481
sample=Marimba_soft_Sustain_MP_D6_RR2.opus
</region>

<region>
hivel=64
key=E2
lovel=33
offset=13060
sample=Marimba_soft_Sustain_MP_E2_RR2.opus
</region>

<region>
hivel=64
key=E3
lovel=33
sample=Marimba_soft_Sustain_MP_E3_RR2.opus
</region>

<region>
hivel=64
key=E4
lovel=33
sample=Marimba_soft_Sustain_MP_E4_RR2.opus
</region>

<region>
hivel=64
key=E5
lovel=33
sample=Marimba_soft_Sustain_MP_E5_RR2.opus
</region>

<region>
hivel=64
key=E6
lovel=33
offset=11704
sample=Marimba_soft_Sustain_MP_E6_RR2.opus
</region>

<region>
hivel=64
key=F#2
lovel=33
offset=12846
sample=Marimba_soft_Sustain_MP_F#2_RR2.opus
</region>

<region>
hivel=64
key=F#3
lovel=33
sample=Marimba_soft_Sustain_MP_F#3_RR2.opus
</region>

<region>
hivel=64
key=F#4
lovel=33
sample=Marimba_soft_Sustain_MP_F#4_RR2.opus
</region>

<region>
hivel=64
key=F#5
lovel=33
sample=Marimba_soft_Sustain_MP_F#5_RR2.opus
</region>

<region>
hivel=64
key=F#6
lovel=33
offset=6588
sample=Marimba_soft_Sustain_MP_F#6_RR2.opus
</region>

<region>
hivel=64
key=F2
lovel=33
offset=13023
sample=Marimba_soft_Sustain_MP_F2_RR2.opus
</region>

<region>
hivel=64
key=F3
lovel=33
sample=Marimba_soft_Sustain_MP_F3_RR2.opus
</region>

<region>
hivel=64
key=F4
lovel=33
sample=Marimba_soft_Sustain_MP_F4_RR2.opus
</region>

<region>
hivel=64
key=F5
lovel=33
sample=Marimba_soft_Sustain_MP_F5_RR2.opus
</region>

<region>
hivel=64
key=F6
lovel=33
offset=12801
sample=Marimba_soft_Sustain_MP_F6_RR2.opus
</region>

<region>
hivel=64
key=G#2
lovel=33
offset=13026
sample=Marimba_soft_Sustain_MP_G#2_RR2.opus
</region>

<region>
hivel=64
key=G#3
lovel=33
sample=Marimba_soft_Sustain_MP_G#3_RR2.opus
</region>

<region>
hivel=64
key=G#4
lovel=33
sample=Marimba_soft_Sustain_MP_G#4_RR2.opus
</region>

<region>
hivel=64
key=G#5
lovel=33
sample=Marimba_soft_Sustain_MP_G#5_RR2.opus
</region>

<region>
hivel=64
key=G#6
lovel=33
offset=12984
sample=Marimba_soft_Sustain_MP_G#6_RR2.opus
</region>

<region>
hivel=64
key=G2
lovel=33
offset=9845
sample=Marimba_soft_Sustain_MP_G2_RR2.opus
</region>

<region>
hivel=64
key=G3
lovel=33
sample=Marimba_soft_Sustain_MP_G3_RR2.opus
</region>

<region>
hivel=64
key=G4
lovel=33
sample=Marimba_soft_Sustain_MP_G4_RR2.opus
</region>

<region>
hivel=64
key=G5
lovel=33
offset=4552
sample=Marimba_soft_Sustain_MP_G5_RR2.opus
</region>

<region>
hivel=64
key=G6
lovel=33
offset=12988
sample=Marimba_soft_Sustain_MP_G6_RR2.opus
</region>

<region>
hivel=96
key=A#2
lovel=65
sample=Marimba_soft_Sustain_MF_A#2_RR2.opus
</region>

<region>
hivel=96
key=A#3
lovel=65
sample=Marimba_soft_Sustain_MF_A#3_RR2.opus
</region>

<region>
hivel=96
key=A#4
lovel=65
sample=Marimba_soft_Sustain_MF_A#4_RR2.opus
</region>

<region>
hivel=96
key=A#5
lovel=65
sample=Marimba_soft_Sustain_MF_A#5_RR2.opus
</region>

<region>
hivel=96
key=A#6
lovel=65
sample=Marimba_soft_Sustain_MF_A#6_RR2.opus
</region>

<region>
hivel=96
key=A2
lovel=65
sample=Marimba_soft_Sustain_MF_A2_RR2.opus
</region>

<region>
hivel=96
key=A3
lovel=65
sample=Marimba_soft_Sustain_MF_A3_RR2.opus
</region>

<region>
hivel=96
key=A4
lovel=65
sample=Marimba_soft_Sustain_MF_A4_RR2.opus
</region>

<region>
hivel=96
key=A5
lovel=65
sample=Marimba_soft_Sustain_MF_A5_RR2.opus
</region>

<region>
hivel=96
key=A6
lovel=65
sample=Marimba_soft_Sustain_MF_A6_RR2.opus
</region>

<region>
hivel=96
key=B2
lovel=65
sample=Marimba_soft_Sustain_MF_B2_RR2.opus
</region>

<region>
hivel=96
key=B3
lovel=65
sample=Marimba_soft_Sustain_MF_B3_RR2.opus
</region>

<region>
hivel=96
key=B4
lovel=65
sample=Marimba_soft_Sustain_MF_B4_RR2.opus
</region>

<region>
hivel=96
key=B5
lovel=65
sample=Marimba_soft_Sustain_MF_B5_RR2.opus
</region>

<region>
hivel=96
key=B6
lovel=65
sample=Marimba_soft_Sustain_MF_B6_RR2.opus
</region>

<region>
hivel=96
key=C#2
lovel=65
sample=Marimba_soft_Sustain_MF_C#2_RR2.opus
</region>

<region>
hivel=96
key=C#3
lovel=65
sample=Marimba_soft_Sustain_MF_C#3_RR2.opus
</region>

<region>
hivel=96
key=C#4
lovel=65
sample=Marimba_soft_Sustain_MF_C#4_RR2.opus
</region>

<region>
hivel=96
key=C#5
lovel=65
sample=Marimba_soft_Sustain_MF_C#5_RR2.opus
</region>

<region>
hivel=96
key=C#6
lovel=65
sample=Marimba_soft_Sustain_MF_C#6_RR2.opus
</region>

<region>
hivel=96
key=C2
lovel=65
sample=Marimba_soft_Sustain_MF_C2_RR2.opus
</region>

<region>
hivel=96
key=C3
lovel=65
sample=Marimba_soft_Sustain_MF_C3_RR2.opus
</region>

<region>
hivel=96
key=C4
lovel=65
sample=Marimba_soft_Sustain_MF_C4_RR2.opus
</region>

<region>
hivel=96
key=C5
lovel=65
sample=Marimba_soft_Sustain_MF_C5_RR2.opus
</region>

<region>
hivel=96
key=C6
lovel=65
sample=Marimba_soft_Sustain_MF_C6_RR2.opus
</region>

<region>
hivel=96
key=C7
lovel=65
sample=Marimba_soft_Sustain_MF_C7_RR2.opus
</region>

<region>
hivel=96
key=D#2
lovel=65
sample=Marimba_soft_Sustain_MF_D#2_RR2.opus
</region>

<region>
hivel=96
key=D#3
lovel=65
sample=Marimba_soft_Sustain_MF_D#3_RR2.opus
</region>

<region>
hivel=96
key=D#4
lovel=65
sample=Marimba_soft_Sustain_MF_D#4_RR2.opus
</region>

<region>
hivel=96
key=D#5
lovel=65
sample=Marimba_soft_Sustain_MF_D#5_RR2.opus
</region>

<region>
hivel=96
key=D#6
lovel=65
sample=Marimba_soft_Sustain_MF_D#6_RR2.opus
</region>

<region>
hivel=96
key=D2
lovel=65
sample=Marimba_soft_Sustain_MF_D2_RR2.opus
</region>

<region>
hivel=96
key=D3
lovel=65
sample=Marimba_soft_Sustain_MF_D3_RR2.opus
</region>

<region>
hivel=96
key=D4
lovel=65
sample=Marimba_soft_Sustain_MF_D4_RR2.opus
</region>

<region>
hivel=96
key=D5
lovel=65
sample=Marimba_soft_Sustain_MF_D5_RR2.opus
</region>

<region>
hivel=96
key=D6
lovel=65
sample=Marimba_soft_Sustain_MF_D6_RR2.opus
</region>

<region>
hivel=96
key=E2
lovel=65
sample=Marimba_soft_Sustain_MF_E2_RR2.opus
</region>

<region>
hivel=96
key=E3
lovel=65
sample=Marimba_soft_Sustain_MF_E3_RR2.opus
</region>

<region>
hivel=96
key=E4
lovel=65
sample=Marimba_soft_Sustain_MF_E4_RR2.opus
</region>

<region>
hivel=96
key=E5
lovel=65
sample=Marimba_soft_Sustain_MF_E5_RR2.opus
</region>

<region>
hivel=96
key=E6
lovel=65
sample=Marimba_soft_Sustain_MF_E6_RR2.opus
</region>

<region>
hivel=96
key=F#2
lovel=65
sample=Marimba_soft_Sustain_MF_F#2_RR2.opus
</region>

<region>
hivel=96
key=F#3
lovel=65
sample=Marimba_soft_Sustain_MF_F#3_RR2.opus
</region>

<region>
hivel=96
key=F#4
lovel=65
sample=Marimba_soft_Sustain_MF_F#4_RR2.opus
</region>

<region>
hivel=96
key=F#5
lovel=65
sample=Marimba_soft_Sustain_MF_F#5_RR2.opus
</region>

<region>
hivel=96
key=F#6
lovel=65
sample=Marimba_soft_Sustain_MF_F#6_RR2.opus
</region>

<region>
hivel=96
key=F2
lovel=65
sample=Marimba_soft_Sustain_MF_F2_RR2.opus
</region>

<region>
hivel=96
key=F3
lovel=65
sample=Marimba_soft_Sustain_MF_F3_RR2.opus
</region>

<region>
hivel=96
key=F4
lovel=65
sample=Marimba_soft_Sustain_MF_F4_RR2.opus
</region>

<region>
hivel=96
key=F5
lovel=65
sample=Marimba_soft_Sustain_MF_F5_RR2.opus
</region>

<region>
hivel=96
key=F6
lovel=65
sample=Marimba_soft_Sustain_MF_F6_RR2.opus
</region>

<region>
hivel=96
key=G#2
lovel=65
sample=Marimba_soft_Sustain_MF_G#2_RR2.opus
</region>

<region>
hivel=96
key=G#3
lovel=65
sample=Marimba_soft_Sustain_MF_G#3_RR2.opus
</region>

<region>
hivel=96
key=G#4
lovel=65
sample=Marimba_soft_Sustain_MF_G#4_RR2.opus
</region>

<region>
hivel=96
key=G#5
lovel=65
sample=Marimba_soft_Sustain_MF_G#5_RR2.opus
</region>

<region>
hivel=96
key=G#6
lovel=65
sample=Marimba_soft_Sustain_MF_G#6_RR2.opus
</region>

<region>
hivel=96
key=G2
lovel=65
sample=Marimba_soft_Sustain_MF_G2_RR2.opus
</region>

<region>
hivel=96
key=G3
lovel=65
sample=Marimba_soft_Sustain_MF_G3_RR2.opus
</region>

<region>
hivel=96
key=G4
lovel=65
sample=Marimba_soft_Sustain_MF_G4_RR2.opus
</region>

<region>
hivel=96
key=G5
lovel=65
sample=Marimba_soft_Sustain_MF_G5_RR2.opus
</region>

<region>
hivel=96
key=G6
lovel=65
sample=Marimba_soft_Sustain_MF_G6_RR2.opus
</region>

<region>
hivel=127
key=A#6
lovel=97
offset=12976
sample=Marimba_soft_Sustain_FF_A#6_RR2.opus
</region>

<region>
hivel=127
key=A6
lovel=97
offset=12994
sample=Marimba_soft_Sustain_FF_A6_RR2.opus
</region>

<region>
hivel=127
key=B6
lovel=97
offset=13004
sample=Marimba_soft_Sustain_FF_B6_RR2.opus
</region>

<region>
hivel=127
key=C7
lovel=97
offset=12959
sample=Marimba_soft_Sustain_FF_C7_RR2.opus
</region>

<region>
hivel=127
key=F#6
lovel=97
offset=8161
sample=Marimba_soft_Sustain_FF_F#6_RR2.opus
</region>

<region>
hivel=127
key=G#6
lovel=97
offset=12952
sample=Marimba_soft_Sustain_FF_G#6_RR2.opus
</region>

<region>
hivel=127
key=G6
lovel=97
offset=12992
sample=Marimba_soft_Sustain_FF_G6_RR2.opus
</region>

<region>
hivel=127
key=A#2
lovel=97
sample=Marimba_soft_Sustain_FF_A#2_RR2.opus
</region>

<region>
hivel=127
key=A#3
lovel=97
sample=Marimba_soft_Sustain_FF_A#3_RR2.opus
</region>

<region>
hivel=127
key=A#4
lovel=97
offset=13013
sample=Marimba_soft_Sustain_FF_A#4_RR2.opus
</region>

<region>
hivel=127
key=A#5
lovel=97
sample=Marimba_soft_Sustain_FF_A#5_RR2.opus
</region>

<region>
hivel=127
key=A2
lovel=97
offset=10816
sample=Marimba_soft_Sustain_FF_A2_RR2.opus
</region>

<region>
hivel=127
key=A3
lovel=97
sample=Marimba_soft_Sustain_FF_A3_RR2.opus
</region>

<region>
hivel=127
key=A4
lovel=97
sample=Marimba_soft_Sustain_FF_A4_RR2.opus
</region>

<region>
hivel=127
key=A5
lovel=97
sample=Marimba_soft_Sustain_FF_A5_RR2.opus
</region>

<region>
hivel=127
key=B2
lovel=97
sample=Marimba_soft_Sustain_FF_B2_RR2.opus
</region>

<region>
hivel=127
key=B3
lovel=97
sample=Marimba_soft_Sustain_FF_B3_RR2.opus
</region>

<region>
hivel=127
key=B4
lovel=97
sample=Marimba_soft_Sustain_FF_B4_RR2.opus
</region>

<region>
hivel=127
key=B5
lovel=97
sample=Marimba_soft_Sustain_FF_B5_RR2.opus
</region>

<region>
hivel=127
key=C#2
lovel=97
offset=12979
sample=Marimba_soft_Sustain_FF_C#2_RR2.opus
</region>

<region>
hivel=127
key=C#3
lovel=97
sample=Marimba_soft_Sustain_FF_C#3_RR2.opus
</region>

<region>
hivel=127
key=C#4
lovel=97
sample=Marimba_soft_Sustain_FF_C#4_RR2.opus
</region>

<region>
hivel=127
key=C#5
lovel=97
sample=Marimba_soft_Sustain_FF_C#5_RR2.opus
</region>

<region>
hivel=127
key=C#6
lovel=97
offset=6804
sample=Marimba_soft_Sustain_FF_C#6_RR2.opus
</region>

<region>
hivel=127
key=C2
lovel=97
offset=12993
sample=Marimba_soft_Sustain_FF_C2_RR2.opus
</region>

<region>
hivel=127
key=C3
lovel=97
sample=Marimba_soft_Sustain_FF_C3_RR2.opus
</region>

<region>
hivel=127
key=C4
lovel=97
sample=Marimba_soft_Sustain_FF_C4_RR2.opus
</region>

<region>
hivel=127
key=C5
lovel=97
sample=Marimba_soft_Sustain_FF_C5_RR2.opus
</region>

<region>
hivel=127
key=C6
lovel=97
sample=Marimba_soft_Sustain_FF_C6_RR2.opus
</region>

<region>
hivel=127
key=D#2
lovel=97
offset=12999
sample=Marimba_soft_Sustain_FF_D#2_RR2.opus
</region>

<region>
hivel=127
key=D#3
lovel=97
sample=Marimba_soft_Sustain_FF_D#3_RR2.opus
</region>

<region>
hivel=127
key=D#4
lovel=97
sample=Marimba_soft_Sustain_FF_D#4_RR2.opus
</region>

<region>
hivel=127
key=D#5
lovel=97
sample=Marimba_soft_Sustain_FF_D#5_RR2.opus
</region>

<region>
hivel=127
key=D#6
lovel=97
sample=Marimba_soft_Sustain_FF_D#6_RR2.opus
</region>

<region>
hivel=127
key=D2
lovel=97
offset=13007
sample=Marimba_soft_Sustain_FF_D2_RR2.opus
</region>

<region>
hivel=127
key=D3
lovel=97
sample=Marimba_soft_Sustain_FF_D3_RR2.opus
</region>

<region>
hivel=127
key=D4
lovel=97
sample=Marimba_soft_Sustain_FF_D4_RR2.opus
</region>

<region>
hivel=127
key=D5
lovel=97
sample=Marimba_soft_Sustain_FF_D5_RR2.opus
</region>

<region>
hivel=127
key=D6
lovel=97
offset=7320
sample=Marimba_soft_Sustain_FF_D6_RR2.opus
</region>

<region>
hivel=127
key=E2
lovel=97
offset=1366
sample=Marimba_soft_Sustain_FF_E2_RR2.opus
</region>

<region>
hivel=127
key=E3
lovel=97
sample=Marimba_soft_Sustain_FF_E3_RR2.opus
</region>

<region>
hivel=127
key=E4
lovel=97
sample=Marimba_soft_Sustain_FF_E4_RR2.opus
</region>

<region>
hivel=127
key=E5
lovel=97
sample=Marimba_soft_Sustain_FF_E5_RR2.opus
</region>

<region>
hivel=127
key=E6
lovel=97
offset=12979
sample=Marimba_soft_Sustain_FF_E6_RR2.opus
</region>

<region>
hivel=127
key=F#2
lovel=97
offset=9868
sample=Marimba_soft_Sustain_FF_F#2_RR2.opus
</region>

<region>
hivel=127
key=F#3
lovel=97
sample=Marimba_soft_Sustain_FF_F#3_RR2.opus
</region>

<region>
hivel=127
key=F#4
lovel=97
sample=Marimba_soft_Sustain_FF_F#4_RR2.opus
</region>

<region>
hivel=127
key=F#5
lovel=97
sample=Marimba_soft_Sustain_FF_F#5_RR2.opus
</region>

<region>
hivel=127
key=F2
lovel=97
offset=8509
sample=Marimba_soft_Sustain_FF_F2_RR2.opus
</region>

<region>
hivel=127
key=F3
lovel=97
sample=Marimba_soft_Sustain_FF_F3_RR2.opus
</region>

<region>
hivel=127
key=F4
lovel=97
sample=Marimba_soft_Sustain_FF_F4_RR2.opus
</region>

<region>
hivel=127
key=F5
lovel=97
sample=Marimba_soft_Sustain_FF_F5_RR2.opus
</region>

<region>
hivel=127
key=F6
lovel=97
offset=12996
sample=Marimba_soft_Sustain_FF_F6_RR2.opus
</region>

<region>
hivel=127
key=G#2
lovel=97
sample=Marimba_soft_Sustain_FF_G#2_RR2.opus
</region>

<region>
hivel=127
key=G#3
lovel=97
sample=Marimba_soft_Sustain_FF_G#3_RR2.opus
</region>

<region>
hivel=127
key=G#4
lovel=97
offset=12566
sample=Marimba_soft_Sustain_FF_G#4_RR2.opus
</region>

<region>
hivel=127
key=G#5
lovel=97
sample=Marimba_soft_Sustain_FF_G#5_RR2.opus
</region>

<region>
hivel=127
key=G2
lovel=97
sample=Marimba_soft_Sustain_FF_G2_RR2.opus
</region>

<region>
hivel=127
key=G3
lovel=97
sample=Marimba_soft_Sustain_FF_G3_RR2.opus
</region>

<region>
hivel=127
key=G4
lovel=97
sample=Marimba_soft_Sustain_FF_G4_RR2.opus
</region>

<region>
hivel=127
key=G5
lovel=97
sample=Marimba_soft_Sustain_FF_G5_RR2.opus
</region>
</group>

<group>
group_label=RR3
seq_length=3
seq_position=3

<region>
hivel=32
key=A#5
lovel=0
offset=13533
sample=Marimba_soft_Sustain_PP_A#5_RR3.opus
volume=4
</region>

<region>
hivel=32
key=A#6
lovel=0
offset=13351
sample=Marimba_soft_Sustain_PP_A#6_RR3.opus
volume=4
</region>

<region>
hivel=32
key=A5
lovel=0
offset=12438
sample=Marimba_soft_Sustain_PP_A5_RR3.opus
volume=4
</region>

<region>
hivel=32
key=A6
lovel=0
offset=15142
sample=Marimba_soft_Sustain_PP_A6_RR3.opus
volume=4
</region>

<region>
hivel=32
key=B5
lovel=0
offset=13520
sample=Marimba_soft_Sustain_PP_B5_RR3.opus
volume=4
</region>

<region>
hivel=32
key=B6
lovel=0
offset=16703
sample=Marimba_soft_Sustain_PP_B6_RR3.opus
volume=4
</region>

<region>
hivel=32
key=C#6
lovel=0
offset=13447
sample=Marimba_soft_Sustain_PP_C#6_RR3.opus
volume=4
</region>

<region>
hivel=32
key=C6
lovel=0
offset=13505
sample=Marimba_soft_Sustain_PP_C6_RR3.opus
volume=4
</region>

<region>
hivel=32
key=C7
lovel=0
offset=14960
sample=Marimba_soft_Sustain_PP_C7_RR3.opus
volume=4
</region>

<region>
hivel=32
key=D#6
lovel=0
offset=13537
sample=Marimba_soft_Sustain_PP_D#6_RR3.opus
volume=4
</region>

<region>
hivel=32
key=D6
lovel=0
offset=13525
sample=Marimba_soft_Sustain_PP_D6_RR3.opus
volume=4
</region>

<region>
hivel=32
key=E6
lovel=0
offset=14232
sample=Marimba_soft_Sustain_PP_E6_RR3.opus
volume=4
</region>

<region>
hivel=32
key=F#5
lovel=0
offset=13562
sample=Marimba_soft_Sustain_PP_F#5_RR3.opus
volume=4
</region>

<region>
hivel=32
key=F#6
lovel=0
offset=16149
sample=Marimba_soft_Sustain_PP_F#6_RR3.opus
volume=4
</region>

<region>
hivel=32
key=F5
lovel=0
offset=13503
sample=Marimba_soft_Sustain_PP_F5_RR3.opus
volume=4
</region>

<region>
hivel=32
key=F6
lovel=0
offset=7341
sample=Marimba_soft_Sustain_PP_F6_RR3.opus
volume=4
</region>

<region>
hivel=32
key=G#5
lovel=0
offset=13511
sample=Marimba_soft_Sustain_PP_G#5_RR3.opus
volume=4
</region>

<region>
hivel=32
key=G#6
lovel=0
offset=14141
sample=Marimba_soft_Sustain_PP_G#6_RR3.opus
volume=4
</region>

<region>
hivel=32
key=G5
lovel=0
offset=13719
sample=Marimba_soft_Sustain_PP_G5_RR3.opus
volume=4
</region>

<region>
hivel=32
key=G6
lovel=0
offset=15470
sample=Marimba_soft_Sustain_PP_G6_RR3.opus
volume=4
</region>

<region>
hivel=32
key=A#2
lovel=0
offset=11148
sample=Marimba_soft_Sustain_PP_A#2_RR3.opus
volume=4
</region>

<region>
hivel=32
key=A#3
lovel=0
offset=7904
sample=Marimba_soft_Sustain_PP_A#3_RR3.opus
volume=4
</region>

<region>
hivel=32
key=A#4
lovel=0
offset=11979
sample=Marimba_soft_Sustain_PP_A#4_RR3.opus
volume=4
</region>

<region>
hivel=32
key=A2
lovel=0
offset=16271
sample=Marimba_soft_Sustain_PP_A2_RR3.opus
volume=4
</region>

<region>
hivel=32
key=A3
lovel=0
offset=14667
sample=Marimba_soft_Sustain_PP_A3_RR3.opus
volume=4
</region>

<region>
hivel=32
key=A4
lovel=0
offset=12874
sample=Marimba_soft_Sustain_PP_A4_RR3.opus
volume=4
</region>

<region>
hivel=32
key=B2
lovel=0
offset=12316
sample=Marimba_soft_Sustain_PP_B2_RR3.opus
volume=4
</region>

<region>
hivel=32
key=B3
lovel=0
offset=13567
sample=Marimba_soft_Sustain_PP_B3_RR3.opus
volume=4
</region>

<region>
hivel=32
key=B4
lovel=0
offset=12376
sample=Marimba_soft_Sustain_PP_B4_RR3.opus
volume=4
</region>

<region>
hivel=32
key=C#2
lovel=0
offset=16499
sample=Marimba_soft_Sustain_PP_C#2_RR3.opus
volume=4
</region>

<region>
hivel=32
key=C#3
lovel=0
offset=15379
sample=Marimba_soft_Sustain_PP_C#3_RR3.opus
volume=4
</region>

<region>
hivel=32
key=C#4
lovel=0
offset=1329
sample=Marimba_soft_Sustain_PP_C#4_RR3.opus
volume=4
</region>

<region>
hivel=32
key=C#5
lovel=0
offset=13755
sample=Marimba_soft_Sustain_PP_C#5_RR3.opus
volume=4
</region>

<region>
hivel=32
key=C2
lovel=0
offset=17858
sample=Marimba_soft_Sustain_PP_C2_RR3.opus
volume=4
</region>

<region>
hivel=32
key=C3
lovel=0
offset=14388
sample=Marimba_soft_Sustain_PP_C3_RR3.opus
volume=4
</region>

<region>
hivel=32
key=C4
lovel=0
offset=695
sample=Marimba_soft_Sustain_PP_C4_RR3.opus
volume=4
</region>

<region>
hivel=32
key=C5
lovel=0
offset=12709
sample=Marimba_soft_Sustain_PP_C5_RR3.opus
volume=4
</region>

<region>
hivel=32
key=D#2
lovel=0
offset=15592
sample=Marimba_soft_Sustain_PP_D#2_RR3.opus
volume=4
</region>

<region>
hivel=32
key=D#3
lovel=0
offset=1959
sample=Marimba_soft_Sustain_PP_D#3_RR3.opus
volume=4
</region>

<region>
hivel=32
key=D#4
lovel=0
offset=1949
sample=Marimba_soft_Sustain_PP_D#4_RR3.opus
volume=4
</region>

<region>
hivel=32
key=D#5
lovel=0
offset=13695
sample=Marimba_soft_Sustain_PP_D#5_RR3.opus
volume=4
</region>

<region>
hivel=32
key=D2
lovel=0
offset=14873
sample=Marimba_soft_Sustain_PP_D2_RR3.opus
volume=4
</region>

<region>
hivel=32
key=D3
lovel=0
offset=15654
sample=Marimba_soft_Sustain_PP_D3_RR3.opus
volume=4
</region>

<region>
hivel=32
key=D4
lovel=0
offset=13757
sample=Marimba_soft_Sustain_PP_D4_RR3.opus
volume=4
</region>

<region>
hivel=32
key=D5
lovel=0
offset=13638
sample=Marimba_soft_Sustain_PP_D5_RR3.opus
volume=4
</region>

<region>
hivel=32
key=E2
lovel=0
offset=17466
sample=Marimba_soft_Sustain_PP_E2_RR3.opus
volume=4
</region>

<region>
hivel=32
key=E3
lovel=0
offset=1635
sample=Marimba_soft_Sustain_PP_E3_RR3.opus
volume=4
</region>

<region>
hivel=32
key=E4
lovel=0
offset=1278
sample=Marimba_soft_Sustain_PP_E4_RR3.opus
volume=4
</region>

<region>
hivel=32
key=E5
lovel=0
offset=13622
sample=Marimba_soft_Sustain_PP_E5_RR3.opus
volume=4
</region>

<region>
hivel=32
key=F#2
lovel=0
offset=13336
sample=Marimba_soft_Sustain_PP_F#2_RR3.opus
volume=4
</region>

<region>
hivel=32
key=F#3
lovel=0
offset=14311
sample=Marimba_soft_Sustain_PP_F#3_RR3.opus
volume=4
</region>

<region>
hivel=32
key=F#4
lovel=0
offset=9227
sample=Marimba_soft_Sustain_PP_F#4_RR3.opus
volume=4
</region>

<region>
hivel=32
key=F2
lovel=0
offset=17649
sample=Marimba_soft_Sustain_PP_F2_RR3.opus
volume=4
</region>

<region>
hivel=32
key=F3
lovel=0
offset=13848
sample=Marimba_soft_Sustain_PP_F3_RR3.opus
volume=4
</region>

<region>
hivel=32
key=F4
lovel=0
offset=14145
sample=Marimba_soft_Sustain_PP_F4_RR3.opus
volume=4
</region>

<region>
hivel=32
key=G#2
lovel=0
offset=13839
sample=Marimba_soft_Sustain_PP_G#2_RR3.opus
volume=4
</region>

<region>
hivel=32
key=G#3
lovel=0
offset=2464
sample=Marimba_soft_Sustain_PP_G#3_RR3.opus
volume=4
</region>

<region>
hivel=32
key=G#4
lovel=0
offset=913
sample=Marimba_soft_Sustain_PP_G#4_RR3.opus
volume=4
</region>

<region>
hivel=32
key=G2
lovel=0
offset=13873
sample=Marimba_soft_Sustain_PP_G2_RR3.opus
volume=4
</region>

<region>
hivel=32
key=G3
lovel=0
offset=14085
sample=Marimba_soft_Sustain_PP_G3_RR3.opus
volume=4
</region>

<region>
hivel=32
key=G4
lovel=0
offset=13965
sample=Marimba_soft_Sustain_PP_G4_RR3.opus
volume=4
</region>

<region>
hivel=64
key=A#2
lovel=33
sample=Marimba_soft_Sustain_MP_A#2_RR3.opus
</region>

<region>
hivel=64
key=A#3
lovel=33
sample=Marimba_soft_Sustain_MP_A#3_RR3.opus
</region>

<region>
hivel=64
key=A#4
lovel=33
sample=Marimba_soft_Sustain_MP_A#4_RR3.opus
</region>

<region>
hivel=64
key=A#5
lovel=33
sample=Marimba_soft_Sustain_MP_A#5_RR3.opus
</region>

<region>
hivel=64
key=A#6
lovel=33
offset=12952
sample=Marimba_soft_Sustain_MP_A#6_RR3.opus
</region>

<region>
hivel=64
key=A2
lovel=33
offset=13009
sample=Marimba_soft_Sustain_MP_A2_RR3.opus
</region>

<region>
hivel=64
key=A3
lovel=33
sample=Marimba_soft_Sustain_MP_A3_RR3.opus
</region>

<region>
hivel=64
key=A4
lovel=33
sample=Marimba_soft_Sustain_MP_A4_RR3.opus
</region>

<region>
hivel=64
key=A5
lovel=33
offset=12443
sample=Marimba_soft_Sustain_MP_A5_RR3.opus
</region>

<region>
hivel=64
key=A6
lovel=33
offset=12975
sample=Marimba_soft_Sustain_MP_A6_RR3.opus
</region>

<region>
hivel=64
key=B2
lovel=33
sample=Marimba_soft_Sustain_MP_B2_RR3.opus
</region>

<region>
hivel=64
key=B3
lovel=33
sample=Marimba_soft_Sustain_MP_B3_RR3.opus
</region>

<region>
hivel=64
key=B4
lovel=33
sample=Marimba_soft_Sustain_MP_B4_RR3.opus
</region>

<region>
hivel=64
key=B5
lovel=33
offset=3888
sample=Marimba_soft_Sustain_MP_B5_RR3.opus
</region>

<region>
hivel=64
key=B6
lovel=33
offset=13003
sample=Marimba_soft_Sustain_MP_B6_RR3.opus
</region>

<region>
hivel=64
key=C#2
lovel=33
offset=13009
sample=Marimba_soft_Sustain_MP_C#2_RR3.opus
</region>

<region>
hivel=64
key=C#3
lovel=33
sample=Marimba_soft_Sustain_MP_C#3_RR3.opus
</region>

<region>
hivel=64
key=C#4
lovel=33
sample=Marimba_soft_Sustain_MP_C#4_RR3.opus
</region>

<region>
hivel=64
key=C#5
lovel=33
sample=Marimba_soft_Sustain_MP_C#5_RR3.opus
</region>

<region>
hivel=64
key=C#6
lovel=33
offset=11799
sample=Marimba_soft_Sustain_MP_C#6_RR3.opus
</region>

<region>
hivel=64
key=C2
lovel=33
offset=13031
sample=Marimba_soft_Sustain_MP_C2_RR3.opus
</region>

<region>
hivel=64
key=C3
lovel=33
sample=Marimba_soft_Sustain_MP_C3_RR3.opus
</region>

<region>
hivel=64
key=C4
lovel=33
sample=Marimba_soft_Sustain_MP_C4_RR3.opus
</region>

<region>
hivel=64
key=C5
lovel=33
sample=Marimba_soft_Sustain_MP_C5_RR3.opus
</region>

<region>
hivel=64
key=C6
lovel=33
offset=12881
sample=Marimba_soft_Sustain_MP_C6_RR3.opus
</region>

<region>
hivel=64
key=C7
lovel=33
offset=12975
sample=Marimba_soft_Sustain_MP_C7_RR3.opus
</region>

<region>
hivel=64
key=D#2
lovel=33
offset=13340
sample=Marimba_soft_Sustain_MP_D#2_RR3.opus
</region>

<region>
hivel=64
key=D#3
lovel=33
sample=Marimba_soft_Sustain_MP_D#3_RR3.opus
</region>

<region>
hivel=64
key=D#4
lovel=33
sample=Marimba_soft_Sustain_MP_D#4_RR3.opus
</region>

<region>
hivel=64
key=D#5
lovel=33
sample=Marimba_soft_Sustain_MP_D#5_RR3.opus
</region>

<region>
hivel=64
key=D#6
lovel=33
offset=10308
sample=Marimba_soft_Sustain_MP_D#6_RR3.opus
</region>

<region>
hivel=64
key=D2
lovel=33
offset=13035
sample=Marimba_soft_Sustain_MP_D2_RR3.opus
</region>

<region>
hivel=64
key=D3
lovel=33
sample=Marimba_soft_Sustain_MP_D3_RR3.opus
</region>

<region>
hivel=64
key=D4
lovel=33
sample=Marimba_soft_Sustain_MP_D4_RR3.opus
</region>

<region>
hivel=64
key=D5
lovel=33
sample=Marimba_soft_Sustain_MP_D5_RR3.opus
</region>

<region>
hivel=64
key=D6
lovel=33
offset=10316
sample=Marimba_soft_Sustain_MP_D6_RR3.opus
</region>

<region>
hivel=64
key=E2
lovel=33
offset=13019
sample=Marimba_soft_Sustain_MP_E2_RR3.opus
</region>

<region>
hivel=64
key=E3
lovel=33
sample=Marimba_soft_Sustain_MP_E3_RR3.opus
</region>

<region>
hivel=64
key=E4
lovel=33
sample=Marimba_soft_Sustain_MP_E4_RR3.opus
</region>

<region>
hivel=64
key=E5
lovel=33
sample=Marimba_soft_Sustain_MP_E5_RR3.opus
</region>

<region>
hivel=64
key=E6
lovel=33
offset=12978
sample=Marimba_soft_Sustain_MP_E6_RR3.opus
</region>

<region>
hivel=64
key=F#2
lovel=33
offset=12977
sample=Marimba_soft_Sustain_MP_F#2_RR3.opus
</region>

<region>
hivel=64
key=F#3
lovel=33
sample=Marimba_soft_Sustain_MP_F#3_RR3.opus
</region>

<region>
hivel=64
key=F#4
lovel=33
sample=Marimba_soft_Sustain_MP_F#4_RR3.opus
</region>

<region>
hivel=64
key=F#5
lovel=33
sample=Marimba_soft_Sustain_MP_F#5_RR3.opus
</region>

<region>
hivel=64
key=F#6
lovel=33
offset=12992
sample=Marimba_soft_Sustain_MP_F#6_RR3.opus
</region>

<region>
hivel=64
key=F2
lovel=33
offset=12989
sample=Marimba_soft_Sustain_MP_F2_RR3.opus
</region>

<region>
hivel=64
key=F3
lovel=33
sample=Marimba_soft_Sustain_MP_F3_RR3.opus
</region>

<region>
hivel=64
key=F4
lovel=33
sample=Marimba_soft_Sustain_MP_F4_RR3.opus
</region>

<region>
hivel=64
key=F5
lovel=33
sample=Marimba_soft_Sustain_MP_F5_RR3.opus
</region>

<region>
hivel=64
key=F6
lovel=33
offset=12112
sample=Marimba_soft_Sustain_MP_F6_RR3.opus
</region>

<region>
hivel=64
key=G#2
lovel=33
offset=11950
sample=Marimba_soft_Sustain_MP_G#2_RR3.opus
</region>

<region>
hivel=64
key=G#3
lovel=33
sample=Marimba_soft_Sustain_MP_G#3_RR3.opus
</region>

<region>
hivel=64
key=G#4
lovel=33
sample=Marimba_soft_Sustain_MP_G#4_RR3.opus
</region>

<region>
hivel=64
key=G#5
lovel=33
sample=Marimba_soft_Sustain_MP_G#5_RR3.opus
</region>

<region>
hivel=64
key=G#6
lovel=33
offset=12976
sample=Marimba_soft_Sustain_MP_G#6_RR3.opus
</region>

<region>
hivel=64
key=G2
lovel=33
sample=Marimba_soft_Sustain_MP_G2_RR3.opus
</region>

<region>
hivel=64
key=G3
lovel=33
sample=Marimba_soft_Sustain_MP_G3_RR3.opus
</region>

<region>
hivel=64
key=G4
lovel=33
sample=Marimba_soft_Sustain_MP_G4_RR3.opus
</region>

<region>
hivel=64
key=G5
lovel=33
sample=Marimba_soft_Sustain_MP_G5_RR3.opus
</region>

<region>
hivel=64
key=G6
lovel=33
offset=12981
sample=Marimba_soft_Sustain_MP_G6_RR3.opus
</region>

<region>
hivel=96
key=A#2
lovel=65
sample=Marimba_soft_Sustain_MF_A#2_RR3.opus
</region>

<region>
hivel=96
key=A#3
lovel=65
sample=Marimba_soft_Sustain_MF_A#3_RR3.opus
</region>

<region>
hivel=96
key=A#4
lovel=65
sample=Marimba_soft_Sustain_MF_A#4_RR3.opus
</region>

<region>
hivel=96
key=A#5
lovel=65
sample=Marimba_soft_Sustain_MF_A#5_RR3.opus
</region>

<region>
hivel=96
key=A#6
lovel=65
sample=Marimba_soft_Sustain_MF_A#6_RR3.opus
</region>

<region>
hivel=96
key=A2
lovel=65
sample=Marimba_soft_Sustain_MF_A2_RR3.opus
</region>

<region>
hivel=96
key=A3
lovel=65
sample=Marimba_soft_Sustain_MF_A3_RR3.opus
</region>

<region>
hivel=96
key=A4
lovel=65
sample=Marimba_soft_Sustain_MF_A4_RR3.opus
</region>

<region>
hivel=96
key=A5
lovel=65
sample=Marimba_soft_Sustain_MF_A5_RR3.opus
</region>

<region>
hivel=96
key=A6
lovel=65
sample=Marimba_soft_Sustain_MF_A6_RR3.opus
</region>

<region>
hivel=96
key=B2
lovel=65
sample=Marimba_soft_Sustain_MF_B2_RR3.opus
</region>

<region>
hivel=96
key=B3
lovel=65
sample=Marimba_soft_Sustain_MF_B3_RR3.opus
</region>

<region>
hivel=96
key=B4
lovel=65
sample=Marimba_soft_Sustain_MF_B4_RR3.opus
</region>

<region>
hivel=96
key=B5
lovel=65
sample=Marimba_soft_Sustain_MF_B5_RR3.opus
</region>

<region>
hivel=96
key=B6
lovel=65
sample=Marimba_soft_Sustain_MF_B6_RR3.opus
</region>

<region>
hivel=96
key=C#2
lovel=65
sample=Marimba_soft_Sustain_MF_C#2_RR3.opus
</region>

<region>
hivel=96
key=C#3
lovel=65
sample=Marimba_soft_Sustain_MF_C#3_RR3.opus
</region>

<region>
hivel=96
key=C#4
lovel=65
sample=Marimba_soft_Sustain_MF_C#4_RR3.opus
</region>

<region>
hivel=96
key=C#5
lovel=65
sample=Marimba_soft_Sustain_MF_C#5_RR3.opus
</region>

<region>
hivel=96
key=C#6
lovel=65
sample=Marimba_soft_Sustain_MF_C#6_RR3.opus
</region>

<region>
hivel=96
key=C2
lovel=65
sample=Marimba_soft_Sustain_MF_C2_RR3.opus
</region>

<region>
hivel=96
key=C3
lovel=65
sample=Marimba_soft_Sustain_MF_C3_RR3.opus
</region>

<region>
hivel=96
key=C4
lovel=65
sample=Marimba_soft_Sustain_MF_C4_RR3.opus
</region>

<region>
hivel=96
key=C5
lovel=65
sample=Marimba_soft_Sustain_MF_C5_RR3.opus
</region>

<region>
hivel=96
key=C6
lovel=65
sample=Marimba_soft_Sustain_MF_C6_RR3.opus
</region>

<region>
hivel=96
key=C7
lovel=65
sample=Marimba_soft_Sustain_MF_C7_RR3.opus
</region>

<region>
hivel=96
key=D#2
lovel=65
sample=Marimba_soft_Sustain_MF_D#2_RR3.opus
</region>

<region>
hivel=96
key=D#3
lovel=65
sample=Marimba_soft_Sustain_MF_D#3_RR3.opus
</region>

<region>
hivel=96
key=D#4
lovel=65
sample=Marimba_soft_Sustain_MF_D#4_RR3.opus
</region>

<region>
hivel=96
key=D#5
lovel=65
sample=Marimba_soft_Sustain_MF_D#5_RR3.opus
</region>

<region>
hivel=96
key=D#6
lovel=65
sample=Marimba_soft_Sustain_MF_D#6_RR3.opus
</region>

<region>
hivel=96
key=D2
lovel=65
sample=Marimba_soft_Sustain_MF_D2_RR3.opus
</region>

<region>
hivel=96
key=D3
lovel=65
sample=Marimba_soft_Sustain_MF_D3_RR3.opus
</region>

<region>
hivel=96
key=D4
lovel=65
sample=Marimba_soft_Sustain_MF_D4_RR3.opus
</region>

<region>
hivel=96
key=D5
lovel=65
sample=Marimba_soft_Sustain_MF_D5_RR3.opus
</region>

<region>
hivel=96
key=D6
lovel=65
sample=Marimba_soft_Sustain_MF_D6_RR3.opus
</region>

<region>
hivel=96
key=E2
lovel=65
sample=Marimba_soft_Sustain_MF_E2_RR3.opus
</region>

<region>
hivel=96
key=E3
lovel=65
sample=Marimba_soft_Sustain_MF_E3_RR3.opus
</region>

<region>
hivel=96
key=E4
lovel=65
sample=Marimba_soft_Sustain_MF_E4_RR3.opus
</region>

<region>
hivel=96
key=E5
lovel=65
sample=Marimba_soft_Sustain_MF_E5_RR3.opus
</region>

<region>
hivel=96
key=E6
lovel=65
sample=Marimba_soft_Sustain_MF_E6_RR3.opus
</region>

<region>
hivel=96
key=F#2
lovel=65
sample=Marimba_soft_Sustain_MF_F#2_RR3.opus
</region>

<region>
hivel=96
key=F#3
lovel=65
sample=Marimba_soft_Sustain_MF_F#3_RR3.opus
</region>

<region>
hivel=96
key=F#4
lovel=65
sample=Marimba_soft_Sustain_MF_F#4_RR3.opus
</region>

<region>
hivel=96
key=F#5
lovel=65
sample=Marimba_soft_Sustain_MF_F#5_RR3.opus
</region>

<region>
hivel=96
key=F#6
lovel=65
sample=Marimba_soft_Sustain_MF_F#6_RR3.opus
</region>

<region>
hivel=96
key=F2
lovel=65
sample=Marimba_soft_Sustain_MF_F2_RR3.opus
</region>

<region>
hivel=96
key=F3
lovel=65
sample=Marimba_soft_Sustain_MF_F3_RR3.opus
</region>

<region>
hivel=96
key=F4
lovel=65
sample=Marimba_soft_Sustain_MF_F4_RR3.opus
</region>

<region>
hivel=96
key=F5
lovel=65
sample=Marimba_soft_Sustain_MF_F5_RR3.opus
</region>

<region>
hivel=96
key=F6
lovel=65
sample=Marimba_soft_Sustain_MF_F6_RR3.opus
</region>

<region>
hivel=96
key=G#2
lovel=65
sample=Marimba_soft_Sustain_MF_G#2_RR3.opus
</region>

<region>
hivel=96
key=G#3
lovel=65
sample=Marimba_soft_Sustain_MF_G#3_RR3.opus
</region>

<region>
hivel=96
key=G#4
lovel=65
sample=Marimba_soft_Sustain_MF_G#4_RR3.opus
</region>

<region>
hivel=96
key=G#5
lovel=65
sample=Marimba_soft_Sustain_MF_G#5_RR3.opus
</region>

<region>
hivel=96
key=G#6
lovel=65
sample=Marimba_soft_Sustain_MF_G#6_RR3.opus
</region>

<region>
hivel=96
key=G2
lovel=65
sample=Marimba_soft_Sustain_MF_G2_RR3.opus
</region>

<region>
hivel=96
key=G3
lovel=65
sample=Marimba_soft_Sustain_MF_G3_RR3.opus
</region>

<region>
hivel=96
key=G4
lovel=65
sample=Marimba_soft_Sustain_MF_G4_RR3.opus
</region>

<region>
hivel=96
key=G5
lovel=65
sample=Marimba_soft_Sustain_MF_G5_RR3.opus
</region>

<region>
hivel=96
key=G6
lovel=65
sample=Marimba_soft_Sustain_MF_G6_RR3.opus
</region>

<region>
hivel=127
key=A#6
lovel=97
offset=12976
sample=Marimba_soft_Sustain_FF_A#6_RR3.opus
</region>

<region>
hivel=127
key=A6
lovel=97
offset=12971
sample=Marimba_soft_Sustain_FF_A6_RR3.opus
</region>

<region>
hivel=127
key=B6
lovel=97
offset=12980
sample=Marimba_soft_Sustain_FF_B6_RR3.opus
</region>

<region>
hivel=127
key=C7
lovel=97
offset=12996
sample=Marimba_soft_Sustain_FF_C7_RR3.opus
</region>

<region>
hivel=127
key=F#6
lovel=97
offset=12993
sample=Marimba_soft_Sustain_FF_F#6_RR3.opus
</region>

<region>
hivel=127
key=G#6
lovel=97
offset=11184
sample=Marimba_soft_Sustain_FF_G#6_RR3.opus
</region>

<region>
hivel=127
key=G6
lovel=97
offset=12986
sample=Marimba_soft_Sustain_FF_G6_RR3.opus
</region>

<region>
hivel=127
key=A#2
lovel=97
sample=Marimba_soft_Sustain_FF_A#2_RR3.opus
</region>

<region>
hivel=127
key=A#3
lovel=97
sample=Marimba_soft_Sustain_FF_A#3_RR3.opus
</region>

<region>
hivel=127
key=A#4
lovel=97
sample=Marimba_soft_Sustain_FF_A#4_RR3.opus
</region>

<region>
hivel=127
key=A#5
lovel=97
sample=Marimba_soft_Sustain_FF_A#5_RR3.opus
</region>

<region>
hivel=127
key=A2
lovel=97
offset=8254
sample=Marimba_soft_Sustain_FF_A2_RR3.opus
</region>

<region>
hivel=127
key=A3
lovel=97
sample=Marimba_soft_Sustain_FF_A3_RR3.opus
</region>

<region>
hivel=127
key=A4
lovel=97
sample=Marimba_soft_Sustain_FF_A4_RR3.opus
</region>

<region>
hivel=127
key=A5
lovel=97
sample=Marimba_soft_Sustain_FF_A5_RR3.opus
</region>

<region>
hivel=127
key=B2
lovel=97
sample=Marimba_soft_Sustain_FF_B2_RR3.opus
</region>

<region>
hivel=127
key=B3
lovel=97
sample=Marimba_soft_Sustain_FF_B3_RR3.opus
</region>

<region>
hivel=127
key=B4
lovel=97
sample=Marimba_soft_Sustain_FF_B4_RR3.opus
</region>

<region>
hivel=127
key=B5
lovel=97
sample=Marimba_soft_Sustain_FF_B5_RR3.opus
</region>

<region>
hivel=127
key=C#2
lovel=97
offset=13001
sample=Marimba_soft_Sustain_FF_C#2_RR3.opus
</region>

<region>
hivel=127
key=C#3
lovel=97
sample=Marimba_soft_Sustain_FF_C#3_RR3.opus
</region>

<region>
hivel=127
key=C#4
lovel=97
sample=Marimba_soft_Sustain_FF_C#4_RR3.opus
</region>

<region>
hivel=127
key=C#5
lovel=97
sample=Marimba_soft_Sustain_FF_C#5_RR3.opus
</region>

<region>
hivel=127
key=C#6
lovel=97
offset=11048
sample=Marimba_soft_Sustain_FF_C#6_RR3.opus
</region>

<region>
hivel=127
key=C2
lovel=97
offset=13007
sample=Marimba_soft_Sustain_FF_C2_RR3.opus
</region>

<region>
hivel=127
key=C3
lovel=97
sample=Marimba_soft_Sustain_FF_C3_RR3.opus
</region>

<region>
hivel=127
key=C4
lovel=97
sample=Marimba_soft_Sustain_FF_C4_RR3.opus
</region>

<region>
hivel=127
key=C5
lovel=97
sample=Marimba_soft_Sustain_FF_C5_RR3.opus
</region>

<region>
hivel=127
key=C6
lovel=97
offset=5748
sample=Marimba_soft_Sustain_FF_C6_RR3.opus
</region>

<region>
hivel=127
key=D#2
lovel=97
offset=12994
sample=Marimba_soft_Sustain_FF_D#2_RR3.opus
</region>

<region>
hivel=127
key=D#3
lovel=97
sample=Marimba_soft_Sustain_FF_D#3_RR3.opus
</region>

<region>
hivel=127
key=D#4
lovel=97
sample=Marimba_soft_Sustain_FF_D#4_RR3.opus
</region>

<region>
hivel=127
key=D#5
lovel=97
sample=Marimba_soft_Sustain_FF_D#5_RR3.opus
</region>

<region>
hivel=127
key=D#6
lovel=97
sample=Marimba_soft_Sustain_FF_D#6_RR3.opus
</region>

<region>
hivel=127
key=D2
lovel=97
offset=13024
sample=Marimba_soft_Sustain_FF_D2_RR3.opus
</region>

<region>
hivel=127
key=D3
lovel=97
sample=Marimba_soft_Sustain_FF_D3_RR3.opus
</region>

<region>
hivel=127
key=D4
lovel=97
sample=Marimba_soft_Sustain_FF_D4_RR3.opus
</region>

<region>
hivel=127
key=D5
lovel=97
sample=Marimba_soft_Sustain_FF_D5_RR3.opus
</region>

<region>
hivel=127
key=D6
lovel=97
offset=5360
sample=Marimba_soft_Sustain_FF_D6_RR3.opus
</region>

<region>
hivel=127
key=E2
lovel=97
sample=Marimba_soft_Sustain_FF_E2_RR3.opus
</region>

<region>
hivel=127
key=E3
lovel=97
sample=Marimba_soft_Sustain_FF_E3_RR3.opus
</region>

<region>
hivel=127
key=E4
lovel=97
sample=Marimba_soft_Sustain_FF_E4_RR3.opus
</region>

<region>
hivel=127
key=E5
lovel=97
sample=Marimba_soft_Sustain_FF_E5_RR3.opus
</region>

<region>
hivel=127
key=E6
lovel=97
offset=5432
sample=Marimba_soft_Sustain_FF_E6_RR3.opus
</region>

<region>
hivel=127
key=F#2
lovel=97
offset=12487
sample=Marimba_soft_Sustain_FF_F#2_RR3.opus
</region>

<region>
hivel=127
key=F#3
lovel=97
sample=Marimba_soft_Sustain_FF_F#3_RR3.opus
</region>

<region>
hivel=127
key=F#4
lovel=97
sample=Marimba_soft_Sustain_FF_F#4_RR3.opus
</region>

<region>
hivel=127
key=F#5
lovel=97
sample=Marimba_soft_Sustain_FF_F#5_RR3.opus
</region>

<region>
hivel=127
key=F2
lovel=97
offset=8285
sample=Marimba_soft_Sustain_FF_F2_RR3.opus
</region>

<region>
hivel=127
key=F3
lovel=97
sample=Marimba_soft_Sustain_FF_F3_RR3.opus
</region>

<region>
hivel=127
key=F4
lovel=97
sample=Marimba_soft_Sustain_FF_F4_RR3.opus
</region>

<region>
hivel=127
key=F5
lovel=97
sample=Marimba_soft_Sustain_FF_F5_RR3.opus
</region>

<region>
hivel=127
key=F6
lovel=97
offset=13000
sample=Marimba_soft_Sustain_FF_F6_RR3.opus
</region>

<region>
hivel=127
key=G#2
lovel=97
offset=7445
sample=Marimba_soft_Sustain_FF_G#2_RR3.opus
</region>

<region>
hivel=127
key=G#3
lovel=97
sample=Marimba_soft_Sustain_FF_G#3_RR3.opus
</region>

<region>
hivel=127
key=G#4
lovel=97
offset=11432
sample=Marimba_soft_Sustain_FF_G#4_RR3.opus
</region>

<region>
hivel=127
key=G#5
lovel=97
sample=Marimba_soft_Sustain_FF_G#5_RR3.opus
</region>

<region>
hivel=127
key=G2
lovel=97
sample=Marimba_soft_Sustain_FF_G2_RR3.opus
</region>

<region>
hivel=127
key=G3
lovel=97
sample=Marimba_soft_Sustain_FF_G3_RR3.opus
</region>

<region>
hivel=127
key=G4
lovel=97
sample=Marimba_soft_Sustain_FF_G4_RR3.opus
</region>

<region>
hivel=127
key=G5
lovel=97
sample=Marimba_soft_Sustain_FF_G5_RR3.opus
</region>
</group>